<?xml version="1.0" encoding="UTF-8"?>
<svg id="Layer_2" data-name="Layer 2" xmlns="http://www.w3.org/2000/svg" viewBox="0 0 742.97 370.57">
  <defs>
    <style>
      .cls-1 {
        fill: #faa627;
      }

      .cls-2 {
        fill: #fff685;
      }

      .cls-3 {
        fill-rule: evenodd;
      }

      .cls-3, .cls-4 {
        fill: #ed1c24;
      }

      .cls-5 {
        fill: #231f20;
      }
    </style>
  </defs>
  <g id="Layer_1-2" data-name="Layer 1">
    <g>
      <g>
        <path class="cls-2" d="m568.98,26.54c3.28-1.34,6.84-2.52,11.2-3.71,15.95-4.37,21.9-12.4,24.1-17.3,2.2,4.9,8.15,12.93,24.1,17.3,4.37,1.2,7.93,2.38,11.2,3.71,10.94,4.46,19.99,9.94,27.63,16.73l-27.07,32.67s-.02.03-.03.04c-11-6.5-23.12-10.11-35.84-10.11s-24.83,3.61-35.83,10.11c0-.01-.01-.02-.02-.03l-27.07-32.67c7.64-6.79,16.69-12.27,27.63-16.73Z"/>
        <path class="cls-4" d="m631.22,236.16c-5.14,1.63-10.63,2.42-16.31,2.21-1.76-.06-3.5-.22-5.21-.47-.09-.01-.19.03-.24.11l-4.17,6.53c-.23.37-.62.55-1,.55-.38,0-.77-.18-1-.55l-4.17-6.53c-.05-.08-.14-.12-.24-.11-1.71.25-3.44.41-5.21.47-5.68.21-11.17-.58-16.31-2.21-.55-.18-.38-1,.2-.95.22.02.42.04.58.05,5.55.36,11-.31,16.18-1.87.21-.06.23-.34.04-.44-16.49-8.6-27.51-26.43-26.8-46.61.47-13.4,6.03-25.39,14.71-34.09.66-.66,1.72.15,1.27.96-5.74,10.25-8.23,22.78-6.24,35.79,2.29,14.94,10.04,27.61,20.66,35.91.16.12.39,0,.39-.2l-1.38-73.16c0-.35.22-.67.56-.78,2.52-.83,4.53-2.52,6.15-4.38.16-.18.38-.27.6-.27.22,0,.44.09.6.27,1.61,1.86,3.63,3.55,6.15,4.38.34.11.56.42.56.78l-1.38,73.16c0,.2.23.32.39.2,10.62-8.3,18.37-20.97,20.66-35.91,1.99-13-.5-25.54-6.24-35.79-.46-.81.61-1.62,1.27-.96,8.68,8.7,14.24,20.69,14.71,34.09.71,20.18-10.3,38.01-26.8,46.61-.19.1-.17.38.04.44,5.18,1.56,10.63,2.23,16.18,1.87.16-.01.36-.03.58-.05.58-.05.75.77.2.95Zm-26.95-92.86c-1.48,1.89-3.58,3.07-5.91,3.07-1.57,0-3.09-.56-4.33-1.5-1.32-1-2.32-2.4-2.94-3.93-.49-1.21-.76-2.51-.81-3.82-.02-.55.73-.73.97-.23,1.2,2.58,3.7,4.35,6.58,4.35,2.45,0,4.63-1.28,5.96-3.25.11-.17.3-.25.48-.26.18,0,.37.09.48.26,1.33,1.97,3.51,3.25,5.96,3.25,2.88,0,5.38-1.77,6.58-4.35.23-.5.98-.32.97.23-.05,1.31-.31,2.61-.81,3.82-.62,1.53-1.62,2.93-2.94,3.93-1.24.95-2.76,1.5-4.33,1.5-2.33,0-4.43-1.18-5.91-3.07m45.95,48.83c0-16.72-6.67-31.48-16.84-40.25-1.01-.87.02-2.48,1.24-1.93,15.09,6.83,25.6,22.01,25.6,39.64,0,13.8-6.44,26.1-16.47,34.07-1.02.81-2.39-.41-1.71-1.52,5.13-8.27,8.18-18.69,8.18-30Zm-83.71,30c.69,1.11-.68,2.33-1.71,1.52-10.04-7.97-16.47-20.27-16.47-34.07,0-17.63,10.5-32.81,25.6-39.64,1.22-.55,2.25,1.06,1.24,1.93-10.16,8.77-16.84,23.52-16.84,40.25,0,11.32,3.06,21.73,8.18,30Z"/>
        <g>
          <path class="cls-4" d="m586.18,56.68c-.12.84-.25,1.23-.4,1.19-.15-.04-.27-.46-.36-1.23-.12-1.37-.33-2.79-.63-4.25-.3-1.46-.68-2.91-1.14-4.34-.46-1.43-1.02-2.83-1.66-4.19-.64-1.36-1.38-2.62-2.22-3.78-.39-.57-.46-1.16-.22-1.79.15-.66.33-1.3.54-1.93.21-.63.39-1.27.54-1.93.12-.39.24-.62.36-.69.12-.07.28.07.49.43.99,1.52,1.85,3.2,2.6,5.02.75,1.82,1.34,3.72,1.77,5.69.43,1.97.69,3.96.76,5.98.07,2.02-.07,3.96-.43,5.84Z"/>
          <path class="cls-4" d="m604.36,39.22c-.6.9-1.33,1.49-2.19,1.77-.87.28-1.79,0-2.78-.83-.24-.24-.37-.34-.4-.29-.03.04-.18.2-.45.47-.54.63-1.09,1.05-1.66,1.25-.15.06-.23.1-.25.11s0,.13.07.34c.78,2.42,1.26,4.87,1.46,7.35.19,2.48.04,5-.47,7.57-.15.69-.28,1-.38.94-.11-.06-.19-.42-.25-1.08-.33-3.43-.94-6.52-1.84-9.25-.9-2.73-2.15-5.22-3.76-7.46-.42-.6-.55-1.21-.4-1.84.18-.63.37-1.28.58-1.95.21-.67.45-1.38.72-2.13.09-.24.16-.4.22-.47.06-.07.16,0,.31.25.45.54,1.01,1.05,1.68,1.55s1.35.77,2.04.83c.39.03.75-.03,1.1-.18.34-.15.66-.36.96-.63.3-.27.55-.57.76-.9.21-.33.39-.67.54-1.03.15-.42.28-.59.38-.51.1.07.25.25.43.51.27.51.57.93.9,1.28.33.34.81.51,1.43.51,1.22,0,2.1-.61,2.64-1.84.12-.33.23-.5.34-.51.1-.01.14.17.11.56-.06.96-.25,1.93-.56,2.93-.31,1-.74,1.89-1.28,2.66Z"/>
          <path class="cls-4" d="m611.08,48.49c-.3.78-.66,1.48-1.08,2.1-.51.63-.92.95-1.23.96-.31.02-.77-.14-1.37-.47-.45-.21-.86-.42-1.23-.63-.37-.21-.74-.42-1.1-.63-.3-.18-.45-.31-.45-.4s.06-.3.18-.63c.3-.66.59-1.32.87-1.99.28-.67.57-1.34.87-1.99.18-.39.35-.6.51-.63.16-.03.41.04.74.22.51.27,1.03.56,1.57.87.54.31,1.01.68,1.43,1.1.33.33.49.66.47.99-.02.33-.08.7-.2,1.12Z"/>
          <path class="cls-4" d="m629.13,36.71c0,.48-.04.9-.11,1.28-.07.37-.26.74-.56,1.1-2.09,2.54-3.67,5.28-4.75,8.22-1.08,2.94-1.87,6.04-2.37,9.29-.15.87-.32,1.28-.51,1.25-.19-.03-.35-.48-.47-1.34-.63-5.76-2.69-11.02-6.18-15.76-.24-.36-.39-.68-.45-.96-.06-.28-.04-.65.04-1.1.09-.57.2-1.18.34-1.84.13-.66.28-1.39.43-2.19.09-.48.27-.52.54-.13,3.1,4.78,5.11,9.17,6,13.17.12.36.24.36.36,0,.24-1.16.59-2.35,1.05-3.56.46-1.21,1-2.41,1.61-3.6.61-1.19,1.29-2.36,2.04-3.49.75-1.13,1.52-2.18,2.33-3.13.3-.36.48-.52.56-.47.07.04.11.26.11.65v2.64Z"/>
        </g>
        <path class="cls-5" d="m737.89,175.66c1.4-2,2.72-4.12,3.9-6.3.58-1.07,1.2-2.33,1.17-3.75-.05-1.98-1.27-3.38-2.36-4.62-.34-.38-.65-.75-.93-1.12-1.36-1.81-1.94-4.41-1.53-6.77.06-.37.15-.74.24-1.1.21-.88.42-1.78.39-2.77-.05-1.78-1.17-3.63-2.95-3.65-.7,0-1.29.29-1.74.55-.87.5-1.63,1.13-2.38,1.74-.55.45-1.06.87-1.61,1.23-1.06.72-1.82,1.02-2.49.97-.55-.84-1.3-1.51-2-2.12-.57-.5-1.11-.98-1.52-1.51-.51-.66-.86-1.5-1.24-2.39-.2-.47-.41-.95-.65-1.42-.08-1.13.25-2.91.75-4.2.34-.86.84-1.67,1.37-2.52.32-.51.65-1.04.94-1.58,1.02-1.87,1.61-3.9,2.19-5.86.78-2.66,1.48-5.7-.17-8.15-.24-.35-.5-.65-.75-.94-.36-.42-.71-.81-.84-1.22-.2-.6-.02-1.37.18-2.22.52-2.18.91-4.42,1.17-6.66.13-1.12.22-2.41-.37-3.56-.81-1.61-2.47-2.22-3.94-2.75-.43-.16-.86-.32-1.27-.5-1.89-.86-3.37-2.64-3.87-4.66-.08-.32-.14-.64-.2-.97-.14-.8-.3-1.62-.71-2.42-.72-1.38-2.45-2.44-4.01-1.74-.6.27-1.01.74-1.31,1.11-.59.76-1.05,1.58-1.5,2.37-.33.59-.64,1.14-1,1.66-.62.9-1.35,1.55-2.07,1.88-.82-.44-1.75-.66-2.61-.85-.71-.16-1.38-.31-1.95-.57-.71-.31-1.34-.83-2.02-1.38-.46-.37-.94-.76-1.47-1.11-.03-.02-.06-.03-.09-.05.03-.87.15-1.68.26-2.16.21-.91.58-1.78.98-2.7.24-.55.48-1.12.7-1.71.73-2.01,1.01-4.1,1.29-6.12.37-2.75.61-5.86-1.39-8.03-.28-.31-.59-.57-.88-.82-.42-.36-.82-.7-1.01-1.08-.29-.56-.22-1.34-.15-2.22.19-2.24.24-4.51.16-6.76-.04-1.12-.15-2.41-.9-3.47-1.05-1.47-2.78-1.82-4.3-2.14-.45-.09-.9-.18-1.33-.3-1.99-.57-3.73-2.11-4.53-4.03-.13-.3-.23-.62-.34-.93-.26-.77-.53-1.56-1.06-2.28-.91-1.26-2.79-2.05-4.22-1.12-.55.36-.89.88-1.12,1.29-.47.84-.81,1.72-1.13,2.57-.24.63-.46,1.22-.74,1.79-.48.99-1.1,1.74-1.77,2.17-.88-.31-1.83-.39-2.71-.45-.73-.05-1.41-.1-2.01-.27-.74-.21-1.45-.62-2.2-1.06-.51-.3-1.05-.61-1.62-.87-1.56-.71-3.88-.98-5.32.55-1.95,2.08-.41,4.91.71,6.98.13.24.25.47.37.69.84,1.61,1.22,3.43,1.11,5.23-.08-.03-.15-.06-.23-.09-3.31-1.14-6.78-1.21-10.13-1.28-1.35-.03-2.26.6-2.35,1.59-.18,1.95.7,3.82,2.69,5.73,2.05,1.96,3.65,4.39,4.65,7.04.29.77.54,1.59.78,2.39.58,1.91,1.18,3.88,2.4,5.58,1.65,2.3,4.08,3.66,6.44,4.98,1.86,1.04,3.61,2.02,4.99,3.42.23.23.44.47.66.71.56.62,1.14,1.26,1.89,1.77,1.36.91,2.92,1.14,4.42,1.36.6.09,1.16.17,1.71.29,5.53,1.25,9.38,3.08,10.41,4.95-.02.57-.09,1.14-.21,1.7-.07-.04-.14-.09-.21-.12-3.11-1.62-6.52-2.21-9.83-2.78-1.33-.23-2.33.26-2.56,1.22-.47,1.9.12,3.88,1.81,6.07,1.73,2.24,2.96,4.89,3.54,7.66.17.81.3,1.66.42,2.48.29,1.97.59,4.01,1.54,5.88,1.29,2.52,3.49,4.23,5.62,5.88,1.68,1.3,3.27,2.54,4.42,4.12.19.26.37.53.54.8.46.7.94,1.42,1.61,2.03,1.21,1.11,2.72,1.56,4.17,2,.58.18,1.12.34,1.65.54,3.83,1.49,6.02,3.37,6.71,5.72-.33.97-.78,1.89-1.31,2.72-.02-.02-.03-.05-.05-.08-2.11-3.15-4.95-5.38-7.7-7.53-.37-.29-1.12-.76-1.91-.65-.45.07-.85.31-1.11.68-1.21,1.69-1.52,3.97-.94,6.97.61,3.16.58,6.5-.08,9.67-.19.92-.44,1.86-.69,2.77-.58,2.15-1.17,4.38-1.11,6.73.08,3.17,1.34,5.96,2.55,8.66.97,2.15,1.88,4.19,2.24,6.39.06.36.1.72.15,1.09.12.93.24,1.89.58,2.82.62,1.7,1.78,2.88,2.9,4.02.45.46.87.88,1.25,1.34,1.43,1.7,2.14,3.09,2.32,4.82-1.22-1.62-2.57-3.09-3.9-4.53-.39-.42-1.02-.93-1.78-.94-.47,0-.88.17-1.2.5-1.46,1.48-2.13,3.68-2.03,6.73.1,3.22-.45,6.51-1.6,9.53-.33.87-.73,1.76-1.12,2.62-.91,2.04-1.85,4.14-2.16,6.47-.42,3.14.38,6.1,1.15,8.96.61,2.28,1.19,4.43,1.21,6.67,0,.36-.01.73-.02,1.1-.03.93-.07,1.9.12,2.88.34,1.77,1.3,3.12,2.23,4.43.37.52.72,1.01,1.03,1.52,1.56,2.61,1.96,6.88,1.01,10.36-.01,0-.03.01-.04.02,0-.03,0-.06,0-.09-.11-3.79-1.32-7.19-2.5-10.48-.16-.44-.53-1.24-1.27-1.56-.42-.18-.88-.19-1.3-.01-1.93.79-3.4,2.55-4.51,5.39-1.17,3-2.97,5.81-5.22,8.14-.65.67-1.37,1.33-2.06,1.97-1.64,1.51-3.33,3.08-4.53,5.1-1.62,2.72-2.05,5.76-2.46,8.69-.33,2.34-.64,4.54-1.51,6.6-.14.34-.3.67-.45,1-.4.85-.81,1.72-1.02,2.7-.38,1.77-.03,3.38.31,4.95.14.62.26,1.21.35,1.8.43,3.13-1.91,7.76-4.45,10.72,0,0-.02,0-.02,0,0-.03.02-.05.03-.08,1.15-3.61,1.12-7.22,1.1-10.71,0-.47-.09-1.34-.68-1.9-.33-.31-.75-.47-1.23-.44-2.08.11-4.06,1.28-6.04,3.6-2.1,2.44-4.73,4.5-7.62,5.96-.84.42-1.73.81-2.59,1.18-2.05.89-4.16,1.81-5.96,3.32-2.43,2.03-3.84,4.76-5.2,7.39-1.08,2.1-2.11,4.08-3.61,5.74-.24.27-.5.53-.76.8-.65.67-1.33,1.36-1.85,2.2-.95,1.54-1.15,3.18-1.34,4.77-.08.63-.15,1.23-.27,1.82-.56,2.78-1.25,4.57-3.17,6.09v-5.08c0-2.56-2.09-4.65-4.65-4.65h-9.89c-2.14,0-2.79,0-6.24-.71-1.34-.27-2.37-.62-3.36-.95-1.59-.53-2.98-.99-4.81-.91-1.91-.08-3.3.38-4.89.91-1,.33-2.03.67-3.36.95-3.45.71-4.09.71-6.24.71h-9.89c-2.56,0-4.65,2.09-4.65,4.65v8.27c-.55-.36-1.07-.73-1.58-1.11.99-7.8-2.38-16.89-8.76-23.42-2.92-2.99-6.52-5.36-9.99-7.65-5.15-3.39-10.01-6.6-12.72-11.59-.24-.44-.74-.67-1.23-.56-.49.11-.84.53-.87,1.03-.01.2-.26,5.05.11,7.52.37,2.5,1.21,4.81,2.12,7.03-2.02-.53-4.08-1.1-6.01-1.85-1.75-.68-3.33-1.49-4.79-2.46,4.09-7.18,4.35-16.33.7-24.51-1.71-3.82-4.25-7.29-6.72-10.64-3.65-4.97-7.1-9.66-7.91-15.28-.07-.5-.46-.88-.96-.95-.5-.06-.98.21-1.17.67-.08.19-1.99,4.64-2.5,7.1-.52,2.48-.53,4.93-.45,7.33-1.71-1.2-3.44-2.44-5-3.82-1.35-1.2-2.51-2.46-3.53-3.82,5.9-5.41,9-13.7,8.32-22.37-.33-4.17-1.57-8.29-2.77-12.28-1.78-5.9-3.45-11.48-2.34-17.05.1-.49-.14-.99-.59-1.21-.44-.23-.99-.13-1.33.24-.14.15-3.43,3.71-4.74,5.85-1.32,2.16-2.15,4.47-2.88,6.76-1.21-1.7-2.43-3.45-3.43-5.27-.9-1.63-1.59-3.27-2.1-4.94,7.21-3.29,13.16-10.83,15.29-19.47,1-4.06,1.11-8.36,1.23-12.52.17-6.16.33-11.98,3.13-16.92.25-.44.18-.98-.18-1.34-.35-.36-.9-.43-1.34-.19-.18.1-4.42,2.44-6.33,4.07-1.93,1.64-3.44,3.57-4.85,5.51-.62-2-1.22-4.04-1.61-6.08-.32-1.69-.45-3.32-.44-4.94,7.8-1.76,14.61-7.39,18.34-15.23,1.8-3.78,2.78-7.97,3.72-12.02,1.41-6,2.73-11.67,6.48-15.95.33-.38.37-.93.1-1.35-.27-.42-.79-.61-1.27-.46-.2.06-4.82,1.5-7.02,2.71-2.22,1.22-4.09,2.8-5.86,4.42-.2-2.08-.38-4.2-.35-6.28.03-1.91.26-3.71.67-5.45.99.13,1.98.2,2.98.2,6.32,0,12.71-2.53,17.76-7.17,2.91-2.67,5.25-5.99,7.52-9.21,3.35-4.75,6.51-9.23,11.28-11.64.45-.23.69-.72.59-1.21s-.51-.86-1-.9c-.19-.02-4.76-.39-7.12-.11-2.34.28-4.51.98-6.6,1.75.55-1.85,1.13-3.73,1.88-5.49.97-2.29,2.18-4.28,3.7-6.07.13-.15.28-.34.46-.55.88-1.07,2.53-3.06,3.68-3.67.53-.28.77-.89.58-1.46-.19-.57-.76-.91-1.34-.81-6.54,1.07-13.05,3.57-18.63,7.05,1.09-4.57.8-8.82-.86-12.01-.55-1.05-1.94-2.78-2.1-2.97-.28-.35-.74-.5-1.17-.39-.43.11-.76.46-.84.9-.88,4.81-3.26,9.38-6.7,12.86-1.16,1.17-2.48,2.26-3.76,3.31-1.31,1.08-2.67,2.2-3.91,3.45-6.07,6.11-9.4,19.9-4.46,31.85-2.26,2.2-4.31,4.58-6.12,7.08-.72-4.98-2.69-9.1-5.6-11.58-.95-.81-2.99-1.96-3.22-2.09-.39-.22-.87-.19-1.23.08-.36.26-.53.71-.44,1.15,1.05,5.09.52,10.54-1.48,15.34-.68,1.62-1.54,3.21-2.37,4.75-.86,1.58-1.74,3.22-2.46,4.94-4.25,10.13-1.19,23.88,7.11,32.18-1.47,2.28-2.76,4.64-3.84,7.06-1.71-4.73-4.47-8.37-7.82-10.22-1.09-.6-3.33-1.31-3.58-1.39-.42-.13-.89,0-1.19.32-.3.33-.38.8-.2,1.21,2.06,4.78,2.64,10.22,1.64,15.32-.34,1.72-.86,3.46-1.37,5.14-.52,1.72-1.06,3.51-1.42,5.33-2.1,10.64,4.12,24.36,13.89,30.77-.91,3.13-1.54,6.33-1.87,9.49-3.11-3.95-6.87-6.55-10.63-7.25-1.23-.23-3.57-.2-3.84-.2-.44,0-.85.27-1.03.68-.18.41-.11.88.19,1.22,3.45,3.89,5.71,8.88,6.36,14.04.22,1.74.27,3.55.31,5.31.05,1.8.1,3.66.33,5.5,1.31,10.47,11.53,21.33,22.94,24.51.21,3.07.68,6.11,1.39,9.04-4.25-2.68-8.66-3.87-12.44-3.27-1.23.2-3.43,1-3.68,1.1-.42.16-.71.54-.74.98-.03.44.2.87.59,1.08,4.56,2.51,8.35,6.45,10.7,11.09.79,1.57,1.44,3.26,2.07,4.9.65,1.68,1.31,3.42,2.15,5.07,4.64,9.21,15.87,15.6,26.91,15.6.83,0,1.66-.04,2.49-.11,1.33,3.07,2.93,6.01,4.75,8.73-4.92-1.05-9.47-.63-12.8,1.25-1.09.61-2.87,2.13-3.07,2.3-.34.29-.48.75-.35,1.18.12.43.48.75.92.81,5.14.78,10.07,3.16,13.88,6.7,1.28,1.2,2.48,2.56,3.64,3.87,1.19,1.35,2.42,2.75,3.78,4.02,5.47,5.1,11.81,9.56,25.72,9.56,6.46,0,14.55-.96,24.93-3.27,1.89,1.04,3.55,2.36,4.49,4.01l.03-.02c.09.3.23.56.39.77l.62.81c-3.02,1.63-8.95,3.37-19.54,1.72-3.75-.61-5.08.71-5.54,1.55-.69,1.25-.37,2.88.88,4.64-5.14,2-13.64,3.12-26.49-1.28-.51-.18-1.07.08-1.27.58-.2.5.02,1.07.5,1.31l13.16,6.29-3.7,4.18c-.24.27-.32.65-.2,1,.11.34.4.6.76.68.45.09,6.47,1.32,13.35,1.32,5.75,0,12.1-.85,16.31-3.94.69-.5,1.04-1.34.92-2.19-.13-.87-.72-1.6-1.55-1.89-.59-.21-1.15-.45-1.69-.7.5.02,1,.03,1.48.03,10.08,0,15.13-3.96,17.55-7.07,1.06.85,2.66,1.15,4.23.72l1.89-.51,1.89.51c.48.13.97.2,1.44.2,1.06,0,2.05-.32,2.78-.91,2.42,3.11,7.47,7.07,17.51,7.07.49,0,1-.02,1.51-.04-.54.25-1.11.49-1.7.7-.83.3-1.43,1.02-1.55,1.89-.12.85.23,1.69.92,2.19,4.22,3.08,10.57,3.94,16.31,3.94,6.88,0,12.89-1.22,13.35-1.32.36-.07.65-.33.76-.68.11-.34.04-.72-.2-1l-3.7-4.18,13.16-6.29c.49-.23.71-.81.5-1.31-.2-.5-.76-.75-1.27-.58-12.84,4.4-21.35,3.28-26.49,1.28,1.25-1.77,1.56-3.39.88-4.64-.46-.84-1.79-2.16-5.53-1.55-10.6,1.66-16.52-.09-19.54-1.72l.62-.81c.16-.21.3-.47.39-.77l.03.02c.87-1.52,2.34-2.76,4.05-3.76,2.38,1.18,4.91,1.63,7.36,1.63,4.77,0,9.18-1.66,11.39-2.64.56-.25,1.03-.58,1.51-.92,1.11-.8,3.91-1.06,5.51-.94.99.07,1.95.33,2.97.61.61.16,1.24.33,1.88.46,2.21.44,4.49.42,6.7.4,2.97-.03,6.33-.26,8.59-2.6.32-.33.59-.69.85-1.03.39-.51.76-.98,1.2-1.27.65-.41,1.52-.47,2.5-.52,2.44-.15,4.92-.44,7.36-.86,1.2-.21,2.57-.51,3.66-1.42,1.52-1.27,1.86-3.1,2.15-4.72.09-.5.18-.98.29-1.42.57-2.19,2.24-4.26,4.35-5.41.33-.18.67-.34,1.01-.5.81-.38,1.66-.78,2.41-1.42,1.36-1.15,2.11-3.18,1.02-4.58-.43-.55-1.03-.83-1.51-1.02-.93-.37-1.9-.58-2.84-.78-.69-.15-1.34-.29-1.97-.49-.66-.21-1.69-.63-2.3-1.37.31-.95.36-1.94.41-2.86.04-.76.07-1.48.24-2.13.2-.81.64-1.61,1.1-2.46.08-.16.17-.32.25-.47.78-.97,2.88-2.09,4.52-2.53.96-.26,1.95-.33,3-.41.63-.05,1.28-.1,1.93-.19,2.23-.31,4.38-1.09,6.46-1.84,2.8-1.01,5.89-2.34,7.25-5.3.19-.42.33-.84.47-1.25.2-.61.39-1.18.72-1.59.48-.6,1.28-.94,2.18-1.32,2.26-.95,4.5-2.04,6.66-3.25,1.07-.59,2.26-1.33,2.99-2.55,1.02-1.7.73-3.54.47-5.16-.08-.5-.15-.98-.19-1.44-.18-2.26.71-4.76,2.32-6.54.25-.28.52-.54.79-.8.64-.63,1.31-1.29,1.81-2.14.9-1.54.94-3.7-.55-4.66-.58-.37-1.25-.45-1.76-.46-.99-.04-1.98.08-2.94.2-.7.09-1.36.17-2.02.19-.7.02-1.8-.04-2.63-.54-.02-1-.3-1.95-.56-2.84-.21-.73-.42-1.42-.48-2.09-.07-.83.07-1.73.22-2.69.1-.65.21-1.32.26-2,0-.16,0-.3,0-.46h.02c.71-.82,1.46-1.51,1.93-1.88.78-.61,1.67-1.07,2.6-1.56.56-.29,1.14-.59,1.7-.93,1.93-1.16,3.6-2.72,5.22-4.23,2.17-2.03,4.5-4.46,4.58-7.72.01-.46-.02-.91-.06-1.34-.05-.64-.1-1.24.03-1.74.2-.74.81-1.37,1.49-2.07,1.7-1.75,3.33-3.64,4.85-5.61.75-.97,1.56-2.11,1.75-3.51.27-1.97-.72-3.54-1.59-4.94-.27-.43-.53-.84-.74-1.25-1.05-2-1.22-4.66-.44-6.93.12-.35.27-.7.41-1.05.34-.83.7-1.69.82-2.67.23-1.77-.58-3.77-2.34-4.07-.68-.11-1.32.08-1.8.26-.94.36-1.79.86-2.62,1.34-.61.36-1.19.69-1.78.96-.97.45-1.9.63-2.63.53-.41-.9-1.04-1.67-1.62-2.38-.48-.59-.94-1.14-1.26-1.73-.37-.68-.58-1.49-.79-2.34.17-.22.34-.42.5-.59.68-.73,1.47-1.32,2.32-1.95.51-.37,1.03-.76,1.53-1.19,1.72-1.45,3.13-3.25,4.48-5,1.83-2.35,3.74-5.12,3.31-8.34-.06-.46-.17-.89-.27-1.31-.15-.62-.3-1.2-.24-1.73.08-.77.58-1.48,1.14-2.28Zm-27.3-76.68c.41-.59.76-1.21,1.09-1.81.43-.76.83-1.47,1.32-2.11.15-.19.35-.43.54-.51.38-.17,1.05.23,1.35.82.27.53.39,1.17.51,1.85.07.37.13.73.22,1.09.66,2.64,2.53,4.89,5.01,6.02.46.21.94.39,1.41.56,1.22.45,2.37.87,2.82,1.76.33.65.26,1.55.16,2.41-.25,2.16-.63,4.32-1.14,6.46-.24,1-.51,2.14-.12,3.3.27.79.78,1.38,1.24,1.91.22.26.43.5.6.74,1.15,1.71.56,4.22-.09,6.43-.55,1.86-1.11,3.78-2.02,5.46-.27.5-.58.99-.88,1.47-.56.89-1.14,1.82-1.54,2.86-.21.54-.5,1.48-.7,2.52-.33-.27-.69-.47-1.05-.62.9-4.16.76-8.66.63-12.33-.05-1.5-.11-3.21-.86-4.76-.2-.42-.44-.8-.67-1.16-.25-.39-.49-.77-.64-1.14-.47-1.13-.35-2.49-.21-3.93.17-1.85.35-3.76-.7-5.47-.94-1.53-2.49-2.29-4-3.03-1.38-.68-2.69-1.32-3.22-2.46-.21-.46-.3-1.01-.4-1.6-.14-.81-.31-1.72-.81-2.53.96-.63,1.69-1.49,2.16-2.19Zm-29.77-42.56c.31-.65.56-1.31.81-1.96.31-.81.6-1.58,1-2.28.12-.21.28-.47.46-.59.35-.23,1.07.08,1.46.61.35.48.56,1.1.78,1.75.12.35.24.71.39,1.05,1.05,2.51,3.23,4.46,5.85,5.2.49.14.99.24,1.48.34,1.27.26,2.47.51,3.05,1.32.42.59.49,1.49.52,2.36.08,2.17.02,4.36-.16,6.57-.09,1.03-.18,2.19.37,3.27.38.74.98,1.25,1.51,1.7.26.22.5.43.7.65,1.4,1.52,1.18,4.09.87,6.37-.26,1.92-.53,3.9-1.18,5.7-.19.54-.42,1.06-.65,1.59-.42.97-.85,1.97-1.1,3.06-.1.45-.2,1.09-.26,1.8-.38-.08-.76-.13-1.15-.12.19-4.11-.6-8.35-1.25-11.82-.28-1.48-.59-3.16-1.57-4.58-.26-.39-.56-.72-.84-1.05-.31-.35-.59-.68-.81-1.03-.64-1.05-.71-2.41-.8-3.86-.11-1.85-.21-3.77-1.51-5.31-1.15-1.37-2.81-1.89-4.41-2.4-1.47-.46-2.85-.9-3.55-1.95-.28-.42-.45-.96-.64-1.52-.26-.78-.56-1.65-1.18-2.38.86-.76,1.44-1.73,1.81-2.49Zm-14.57,5.9c-.12-.23-.25-.47-.39-.72-1.11-2.04-1.88-3.68-1.01-4.61.65-.69,2-.53,2.98-.09.48.22.94.49,1.43.78.83.49,1.69.99,2.69,1.27.8.22,1.61.28,2.4.34,1.28.1,2.38.18,3.05.87.4.42.62,1.08.85,1.77.22.67.45,1.37.88,2.01,1.09,1.65,2.97,2.25,4.63,2.77,1.38.44,2.69.85,3.46,1.77.86,1.02.94,2.52,1.03,4.11.09,1.63.19,3.32,1.09,4.8.3.5.66.91,1.01,1.31.26.3.5.57.7.86.73,1.07.99,2.46,1.24,3.8.71,3.79,1.5,8.08,1.16,12.17,0,0-.01,0-.02.01-.48.38-.8.82-1.01,1.3-1.87-2.15-4.44-3.73-6.5-4.85-.38-.21-.78-.41-1.19-.6-1.27-.63-2.48-1.22-3.13-2.23-.43-.66-.62-1.53-.83-2.44-.31-1.35-.66-2.88-1.89-3.93-.72-.62-1.59-.92-2.36-1.18-.62-.21-1.21-.41-1.64-.75-.9-.7-1.16-2.01-1.45-3.4-.13-.62-.26-1.27-.45-1.89-.79-2.53-2.78-4.73-5.48-6.19.3-2.42-.13-4.9-1.27-7.07Zm17.68,37.69c-.62-.14-1.25-.23-1.86-.32-1.34-.19-2.6-.38-3.58-1.03-.55-.36-1.02-.89-1.51-1.44-.24-.26-.47-.53-.72-.78-1.58-1.6-3.55-2.7-5.45-3.76-2.26-1.26-4.4-2.46-5.78-4.39-1.03-1.43-1.55-3.16-2.11-4.99-.25-.83-.51-1.68-.82-2.51-1.1-2.94-2.88-5.63-5.15-7.8-1.41-1.35-2.09-2.59-2.09-3.79.08-.01.18-.02.29-.02,3.2.06,6.5.13,9.51,1.16,3.2,1.1,5.59,3.29,6.39,5.85.16.52.28,1.09.4,1.69.33,1.61.7,3.43,2.19,4.6.7.55,1.52.83,2.24,1.07.65.22,1.27.43,1.7.8.72.61.96,1.65,1.23,2.84.24,1.04.49,2.12,1.1,3.09.96,1.49,2.54,2.27,3.94,2.96.37.18.75.37,1.11.56,4.3,2.34,6.79,4.71,7.62,7.23h0c.16.53.35,1.05.52,1.53.09.25.18.5.26.74.04.12.07.24.11.37-2.51-1.77-6.32-2.93-9.55-3.66Zm11.36,2.62c-.09-.25-.18-.51-.27-.77-.79-2.19-1.32-3.92-.31-4.71.74-.59,2.06-.23,2.96.36.44.28.86.62,1.3.98.75.6,1.52,1.23,2.47,1.65.75.34,1.55.52,2.33.69,1.25.29,2.33.53,2.88,1.32.34.48.45,1.16.57,1.88.12.7.24,1.42.56,2.12.83,1.8,2.6,2.67,4.17,3.43,1.3.64,2.53,1.24,3.16,2.27.7,1.13.56,2.63.41,4.22-.15,1.63-.31,3.31.36,4.91.22.54.52,1,.8,1.45.21.33.41.64.56.96.56,1.16.61,2.58.66,3.95.13,3.81.27,8.09-.63,12.05-.04,0-.09,0-.13.02-.98.27-1.65.88-2.12,1.67-.91-2.4-2.49-4.48-4.69-6.15-.35-.27-.72-.52-1.08-.77-1.17-.81-2.27-1.57-2.76-2.67-.32-.72-.39-1.6-.46-2.54-.1-1.38-.22-2.95-1.28-4.17-.62-.72-1.44-1.14-2.16-1.52-.58-.3-1.14-.59-1.51-.99-.78-.83-.85-2.17-.92-3.58-.03-.64-.07-1.29-.17-1.94-.41-2.62-2.05-5.09-4.49-6.94.66-2.35.6-4.87-.2-7.18Zm11.85,39.91c-.59-.23-1.2-.42-1.79-.6-1.29-.39-2.52-.76-3.39-1.56-.49-.44-.87-1.03-1.28-1.65-.19-.29-.39-.59-.6-.87-1.32-1.82-3.1-3.2-4.82-4.54-2.05-1.59-3.98-3.09-5.06-5.2-.8-1.57-1.06-3.35-1.34-5.25-.13-.86-.26-1.74-.44-2.61-.65-3.07-2.01-6-3.93-8.48-1.19-1.54-1.68-2.87-1.5-4.06.12,0,.18,0,.29.03,3.15.54,6.41,1.1,9.23,2.57,3,1.57,5.04,4.08,5.45,6.74.08.54.11,1.12.15,1.73.08,1.64.18,3.5,1.48,4.87.61.65,1.38,1.05,2.05,1.4.61.32,1.19.62,1.56,1.04.62.71.7,1.77.79,2.99.08,1.07.16,2.17.63,3.22.72,1.62,2.18,2.62,3.46,3.51.34.24.69.48,1.01.72,2.97,2.26,4.63,5.4,4.79,9.09-.02.25-.05.51-.07.75-.02.22-.04.43-.06.64-1.35-1.8-3.52-3.29-6.62-4.49Zm8.76,4.96c.03-.3.05-.6.08-.92.18-2.1.4-4.71,1.73-5.08.85-.23,1.83.75,2.38,1.76.1.18.18.36.27.55.09.3.21.57.37.82.04.09.08.18.12.27.41.97.84,1.98,1.51,2.86.54.7,1.18,1.27,1.81,1.82,1.01.89,1.89,1.66,2.06,2.78.11.7-.09,1.47-.29,2.3-.19.76-.38,1.55-.39,2.4-.02,2.19,1.15,3.84,2.27,5.43.91,1.29,1.77,2.51,1.91,3.9.15,1.56-.63,3.06-1.46,4.65-.83,1.59-1.68,3.23-1.76,5.15-.03.64.04,1.25.1,1.84.05.45.09.87.1,1.27.01,1.51-.56,3.01-1.1,4.46-1.01,2.68-2.25,5.94-3.78,8.87-.54-.25-1.11-.37-1.69-.3-1.06.12-1.84.64-2.43,1.4-.43-1.97-1.19-3.88-2.04-5.71-.2-.44-.42-.87-.64-1.31-.72-1.41-1.39-2.73-1.37-4.15.02-.93.34-1.89.68-2.9.51-1.52,1.04-3.09.62-4.79-.25-1.01-.8-1.83-1.29-2.55-.4-.6-.78-1.16-.96-1.77-.37-1.29.15-2.73.7-4.26.24-.67.49-1.36.67-2.06.75-2.88.31-6.2-1.13-9.25,1.63-2.1,2.66-4.73,2.93-7.49Zm-6.35,46.88c-.44-.52-.91-1-1.37-1.47-1-1.02-1.95-1.99-2.41-3.24-.26-.71-.36-1.5-.46-2.35-.05-.39-.1-.78-.16-1.17-.41-2.48-1.43-4.74-2.41-6.93-1.18-2.62-2.29-5.1-2.36-7.83-.05-2.03.48-4.01,1.04-6.11.25-.94.51-1.91.72-2.89.72-3.44.75-7.08.08-10.52-.42-2.17-.3-3.8.37-4.97.04.02.08.05.12.09,2.61,2.05,5.32,4.17,7.24,7.03,2.06,3.07,2.83,6.69,2.05,9.67-.16.61-.38,1.22-.61,1.87-.64,1.78-1.31,3.63-.75,5.59.27.94.79,1.71,1.24,2.38.42.62.82,1.21.98,1.85.27,1.09-.14,2.3-.57,3.58-.38,1.12-.77,2.29-.8,3.55-.04,1.96.8,3.59,1.6,5.18.21.41.42.82.61,1.23,1.55,3.37,2.82,6.98,1.84,10.66-.05.2-.12.41-.18.61-.04.11-.07.22-.11.34h0c-.55,1.59-1.42,3.06-2.51,4.27-.01-.03-.02-.05-.03-.08-.14-.31-.3-.61-.46-.92.53-3.93-.18-6.43-2.7-9.43Zm-5.58,51.04c-.35-.58-.74-1.13-1.12-1.66-.83-1.17-1.61-2.27-1.87-3.58-.14-.74-.11-1.54-.08-2.39.01-.4.03-.79.02-1.19-.01-2.52-.66-4.91-1.28-7.22-.75-2.78-1.45-5.4-1.09-8.11.27-2.01,1.11-3.89,1.99-5.87.4-.89.81-1.8,1.16-2.73,1.26-3.29,1.86-6.87,1.75-10.38-.07-2.21.31-3.8,1.15-4.85.03.03.07.06.1.1,2.26,2.44,4.59,4.96,6.03,8.09,1.55,3.36,1.74,7.05.5,9.88-.25.57-.57,1.14-.9,1.75-.92,1.66-1.87,3.38-1.62,5.41.12.97.51,1.81.85,2.55.32.68.62,1.33.67,1.98.09,1.12-.5,2.25-1.13,3.44-.55,1.05-1.12,2.14-1.35,3.38-.35,1.93.22,3.67.76,5.36.14.44.28.87.4,1.31,1.18,4.22.87,8.62-.78,11.92-.15.2-.3.4-.45.59-.6.77-1.3,1.48-2.06,2.1.46-3.53-.13-7.31-1.68-9.89Zm10.18,5.01c.84.26,1.15,1.61,1.08,2.76-.04.58-.13,1.16-.23,1.79-.17,1.04-.34,2.12-.24,3.23.08.88.32,1.71.56,2.51.28.96.54,1.82.46,2.63,0,0-.07.59-.2.83-.35.61-.86,1.2-1.47,1.79-.57.54-1.15,1.11-1.61,1.82-1.18,1.84-1.07,3.86-.97,5.8.08,1.58.16,3.07-.47,4.32-.71,1.4-2.17,2.25-3.71,3.16-1.54.9-3.14,1.84-4.23,3.42-.37.53-.63,1.08-.89,1.61-.2.4-.38.78-.6,1.13-.79,1.28-2.07,2.25-3.31,3.18-3.55,2.68-7.54,5.67-11.8,7.4-.07-.06-.13-.13-.2-.18-.61-.45-1.26-.64-1.92-.66,1.72-2.39,2.84-5.2,3.24-8.25.06-.48.11-.96.15-1.45.14-1.57.28-3.06,1.06-4.24.51-.78,1.29-1.41,2.12-2.09,1.24-1.01,2.53-2.06,3.08-3.72.33-.99.3-1.97.27-2.84-.02-.72-.04-1.4.13-2,.37-1.29,1.58-2.23,2.87-3.23.56-.44,1.14-.89,1.67-1.38,2.17-2.03,3.57-5.08,3.98-8.43,2.49-.91,4.77-2.58,6.47-4.78.09-.11.5-.61.58-.77,1.26-1.68,2.83-3.74,4.15-3.34Zm-35.1,40.38c-.09-.67-.24-1.33-.37-1.97-.31-1.4-.59-2.72-.31-4.03.16-.73.5-1.46.86-2.24.17-.36.34-.72.49-1.08.98-2.32,1.32-4.77,1.66-7.14.4-2.85.78-5.53,2.18-7.88,1.04-1.75,2.54-3.14,4.14-4.61.71-.66,1.45-1.34,2.14-2.06,2.44-2.53,4.41-5.59,5.68-8.86.8-2.06,1.77-3.37,2.96-4.01.02.04.04.08.05.14,1.12,3.13,2.28,6.36,2.37,9.81.11,3.7-1.17,7.17-3.42,9.28-.46.43-.97.83-1.52,1.25-1.5,1.17-3.04,2.37-3.62,4.33-.27.94-.24,1.86-.22,2.68.02.75.05,1.46-.16,2.09-.35,1.07-1.34,1.87-2.39,2.72-.92.75-1.87,1.52-2.57,2.58-1.08,1.64-1.24,3.47-1.4,5.23-.04.46-.08.92-.14,1.36-.55,4.2-2.65,7.9-5.91,10.43-.27.18-.54.35-.8.53-.25.17-.5.34-.75.49-.7.46-1.46.83-2.24,1.14,2.07-3.12,3.7-7.07,3.27-10.19Zm-40.5,35.08c.14-.67.22-1.34.3-1.98.17-1.42.34-2.76,1.04-3.9.39-.64.96-1.21,1.55-1.82.28-.28.55-.57.82-.86,1.69-1.87,2.82-4.07,3.92-6.19,1.32-2.55,2.57-4.96,4.66-6.72,1.56-1.3,3.44-2.12,5.43-2.99.89-.39,1.81-.79,2.7-1.24,3.14-1.58,6.01-3.82,8.29-6.48,1.44-1.68,2.79-2.6,4.12-2.81,0,.04,0,.09,0,.15.02,3.32.05,6.76-1,10.04-1.12,3.53-3.48,6.38-6.29,7.63-.57.25-1.19.46-1.85.68-1.8.61-3.66,1.23-4.85,2.9-.57.79-.85,1.68-1.09,2.46-.23.72-.44,1.4-.84,1.92-.69.89-1.89,1.32-3.16,1.78-1.12.4-2.27.82-3.28,1.59-1.56,1.19-2.32,2.86-3.05,4.48-.19.42-.38.84-.59,1.24-1.33,2.64-5.77,5.16-10.12,6.92,1.91-1.79,2.69-3.91,3.27-6.79Zm8.79.84c.22-.43.42-.87.62-1.32.65-1.44,1.27-2.79,2.4-3.65.74-.56,1.69-.91,2.69-1.27,1.51-.54,3.07-1.11,4.14-2.5.64-.83.93-1.76,1.19-2.59.22-.69.42-1.33.79-1.85.78-1.09,2.23-1.58,3.77-2.1.67-.23,1.37-.46,2.03-.75,2.72-1.2,5.04-3.61,6.54-6.65,2.66-.03,5.36-.86,7.69-2.37.25-.16.51-.33.77-.51.26-.17.52-.35.79-.52h0s.05-.03.07-.05c1.56-1,3.25-1.92,4.18-1.24.71.52.55,1.9.11,2.96-.15.35-.32.69-.51,1.05-.18.25-.33.52-.43.79h0c-.46.86-.92,1.75-1.17,2.74-.22.86-.26,1.72-.3,2.55-.05,1-.1,1.9-.43,2.63,0,0-.38.62-.47.71-.48.52-1.21.85-1.98,1.2-.71.33-1.45.66-2.13,1.19-1.72,1.35-2.29,3.29-2.83,5.16-.44,1.52-.86,2.95-1.87,3.92-1.13,1.09-2.79,1.41-4.55,1.75-1.76.34-3.57.7-5.13,1.83-.52.38-.95.81-1.38,1.23-.32.32-.62.61-.94.87-1.17.95-2.7,1.44-4.18,1.91-5.47,1.75-17.65,4.61-23.65,4.05,0-.05,0-.11.01-.16,2.88-.98,11.76-4.34,14.12-9.02Zm-93.62-22.31c3.38,2.23,6.87,4.53,9.62,7.35,5.44,5.57,8.59,13.42,8.26,20.18-4.5-3.91-7.03-8.18-9.33-12.06-2.52-4.26-4.7-7.93-8.78-10.11-2.69-1.43-5.57-2.31-8.41-3.07v-.03c-1.14-2.69-2.2-5.24-2.63-8.05-.14-.93-.18-2.3-.18-3.58,3.06,3.84,7.31,6.64,11.44,9.37Zm-11.01,4.02c3.44.9,6.69,1.74,9.71,3.35,3.52,1.87,5.54,5.3,7.89,9.26,2.87,4.85,6.41,10.83,13.94,15.74-14.2-1.48-27.06-6.55-34.88-13.85-6.07-5.66-10.89-13.9-13.32-22.59.56.47,1.16.94,1.75,1.4.22.17.41.32.57.44,2.1,1.68,4.51,3.05,7.16,4.08,2.35.91,4.81,1.55,7.18,2.17Zm-27.54-49.92c.19-.92.63-2.22,1.07-3.42,1.54,4.66,4.55,8.76,7.49,12.76,2.39,3.26,4.87,6.63,6.48,10.23,3.28,7.36,3.14,15.53-.35,22.02-.24-1.58-.44-3.19-.65-4.88-.99-7.97-2.01-16.21-7.55-22.42-2.03-2.28-4.42-4.09-6.83-5.8v-.02c-.13-2.92-.24-5.68.34-8.47Zm-9.15,4.76c1.89,1.67,3.97,3.12,5.99,4.53,2.92,2.03,5.67,3.95,7.95,6.51,5.06,5.69,6.04,13.57,6.99,21.19.12.97.25,1.96.38,2.94-.91-.77-1.79-1.63-2.19-2.33-.3-.52-.92-.74-1.48-.53-.56.21-.88.78-.77,1.37.22,1.11.48,2.21.77,3.31-8.62-4.76-15.77-11.95-19.82-20.01-3.73-7.41-5.4-16.82-4.67-25.81.37.64.76,1.28,1.16,1.92.14.23.27.44.38.61,1.39,2.3,3.18,4.43,5.31,6.31Zm-3.55-51.19c.49-.81,1.34-1.88,2.16-2.86-.11,4.91,1.35,9.78,2.78,14.53,1.16,3.87,2.37,7.88,2.68,11.81.62,7.87-2.13,15.37-7.37,20.33-.02-.03-.04-.06-.06-.09-.06-.09-.12-.2-.19-.31.29-1.46.62-2.95.94-4.4,1.72-7.71,3.51-15.69.39-23.37-1.15-2.82-2.8-5.34-4.49-7.75v-.02c.87-2.79,1.68-5.43,3.16-7.86Zm-6.09,7.69c2.07,2.89,4.02,5.63,5.31,8.8,2.85,7.01,1.15,14.64-.5,22.01-.15.66-.29,1.32-.44,1.99-.46-.87-.85-1.75-.96-2.4-.09-.59-.59-1.02-1.19-1.03-.61-.02-1.11.42-1.2,1.02-.24,1.47-.41,2.95-.52,4.45-6.69-7.56-11.26-17.07-12.36-25.84-.97-7.75.37-16.56,3.62-24.42l.04-.02s-.01-.03-.02-.04c.19-.47.39-.94.6-1.4.13.72.29,1.47.45,2.2.06.27.11.5.15.7.54,2.64,1.51,5.23,2.89,7.72,1.22,2.21,2.7,4.27,4.12,6.27Zm9.02-56.99c.72-.61,1.86-1.37,2.95-2.04-1.65,4.62-1.79,9.71-1.92,14.67-.11,4.04-.22,8.22-1.16,12.05-1.93,7.85-7.23,14.7-13.68,17.8-.04-.19-.09-.41-.14-.67-.02-.08-.04-.18-.06-.27.78-1.38,1.61-2.76,2.49-4.21,4.14-6.84,8.43-13.92,7.89-22.07-.2-3.04-.98-5.95-1.83-8.77l.02-.02c1.69-2.38,3.29-4.63,5.46-6.47Zm-5.91,15.41c.5,7.44-3.6,14.2-7.56,20.74-.38.63-.76,1.26-1.14,1.9-.07-.67-.08-1.3,0-1.77.11-.59-.22-1.16-.78-1.36-.56-.2-1.18.03-1.47.55-.57,1.04-1.11,2.11-1.61,3.2-3.91-9.46-5.4-20.33-3.8-28.47,1.61-8.14,6.06-16.59,12.15-23.24-.1.73-.19,1.48-.26,2.22-.03.27-.05.52-.08.72-.32,2.67-.21,5.45.32,8.24.47,2.48,1.22,4.9,1.95,7.25,1.06,3.4,2.05,6.6,2.28,10.02Zm18.99-62.96c.83-.45,2.09-.96,3.3-1.41-2.54,4.2-3.7,9.15-4.83,13.98-.92,3.94-1.87,8.01-3.57,11.57-3.33,7.02-9.32,12.11-16.2,13.87.01-.1.01-.2.02-.29,0-.08.02-.18.03-.27.99-1.14,2.02-2.28,3.02-3.39,5.13-5.66,10.44-11.52,11.58-19.85.41-3.02.24-6.02-.03-8.96h.02c2.14-2.01,4.16-3.89,6.65-5.26Zm25.65-37.09c.84-.1,2.04-.1,3.2-.07-3.65,2.77-6.38,6.65-9.04,10.42-2.2,3.12-4.47,6.34-7.2,8.85-5.27,4.84-12.11,7.17-18.61,6.44.05-.16.11-.34.17-.54.02-.05.04-.12.06-.18,1.19-.6,2.4-1.19,3.58-1.75,6.46-3.09,13.14-6.29,17.05-13.12,1.43-2.49,2.34-5.17,3.14-7.83,2.57-.98,5-1.91,7.66-2.22Zm-2.58-14.02c-.17.2-.31.38-.44.52-1.65,1.94-3.02,4.18-4.06,6.65-.93,2.2-1.6,4.49-2.25,6.72-.94,3.22-1.83,6.25-3.43,9.05-3.56,6.22-9.63,9.12-16.06,12.2-.49.24-1,.48-1.5.72.32-.75.67-1.43,1.03-1.85.39-.45.39-1.11,0-1.57-.39-.46-1.04-.56-1.55-.25-1.13.69-2.24,1.42-3.32,2.2,1.82-9.76,5.96-18.59,11.33-24,5.47-5.5,13.29-9.78,21.48-11.84-.41.47-.83.96-1.23,1.45Zm-31.67,9.31c1.16-1.17,2.47-2.25,3.74-3.3,1.32-1.09,2.68-2.21,3.92-3.47,3.18-3.21,5.52-7.26,6.76-11.61.17.25.31.48.41.67,2.36,4.52.84,10.31-.08,12.95-1.79,1.31-3.46,2.72-4.95,4.22-6.14,6.18-10.75,16.5-12.37,27.65-.58.47-1.14.96-1.7,1.45-3.23-8.83-2.39-21.86,4.27-28.57Zm1.3,27c-.25.69-.48,1.41-.71,2.13-.08.26-.16.49-.22.68-.85,2.55-1.3,5.29-1.35,8.13-.04,2.52.21,5.05.45,7.49.35,3.54.68,6.88.21,10.27-1.05,7.63-5.89,12.97-11.02,18.63-.26.28-.52.57-.78.86.16-.74.36-1.42.61-1.88.29-.52.15-1.17-.32-1.54-.47-.37-1.13-.34-1.57.07-1.44,1.34-2.81,2.77-4.1,4.28-2.08-9.89-1.29-20.53,2.19-28.82,3.21-7.65,9.28-15.03,16.59-20.32Zm-28.21,23.79c.68-1.61,1.53-3.2,2.37-4.73.86-1.59,1.75-3.24,2.47-4.96,1.86-4.45,2.55-9.41,2.01-14.2.31.21.6.41.79.58,4.14,3.53,4.94,9.88,5.08,12.83-1.24,2-2.32,4.05-3.19,6.13-3.87,9.2-4.57,21.13-1.91,31.95-.45.58-.88,1.17-1.3,1.77-7.32-7.61-10.11-20.32-6.31-29.37Zm-10.54,54.51c.34-1.71.86-3.44,1.36-5.11.52-1.73,1.06-3.52,1.42-5.36.93-4.73.61-9.73-.89-14.32.35.14.67.28.89.41,4.76,2.62,6.82,8.68,7.56,11.55-.81,2.21-1.45,4.44-1.89,6.64-1.8,9.14.09,21.5,4.81,31.8-.32.81-.61,1.62-.89,2.44-8.75-6.09-14.26-18.43-12.37-28.05Zm3.74,58.84c-.22-1.73-.26-3.53-.31-5.28-.05-1.81-.1-3.68-.33-5.53-.6-4.78-2.48-9.43-5.34-13.31.38.02.72.06.97.11,5.35,1,9.2,6.1,10.8,8.59-.08,2.35.01,4.67.29,6.9,1.24,9.89,6.65,20.64,14.48,28.77,0,.71,0,1.43.01,2.14-10.3-3.18-19.39-12.96-20.57-22.39Zm22.75,53.76c-.78-1.56-1.43-3.24-2.06-4.87-.65-1.69-1.32-3.44-2.17-5.11-2.17-4.3-5.49-8.05-9.49-10.75.36-.1.7-.19.95-.23,5.37-.85,10.72,2.66,13.05,4.48.72,2.24,1.57,4.4,2.58,6.4,4.56,9.07,12.86,17.1,22.76,22.04.26.78.53,1.55.83,2.31-10.55.64-22.05-5.51-26.46-14.28Zm39.66,43.71c-1.28-1.19-2.47-2.55-3.62-3.86-1.19-1.36-2.43-2.76-3.8-4.04-3.53-3.28-7.94-5.65-12.63-6.8.31-.22.59-.42.82-.54,4.74-2.66,10.98-1.21,13.8-.32,1.45,1.86,3,3.58,4.64,5.11,8.81,8.22,23.63,13.73,39.66,14.74.44.28.94.48,1.46.59,1.46.31,3.33.79,5.24,1.49-29.24,6.01-38.27.43-45.57-6.38Zm41.74,29.67c.02.16-.07.23-.1.25-7.01,5.13-21.3,3.39-26.28,2.58l3.39-3.83c.21-.24.3-.56.24-.88-.06-.31-.27-.58-.56-.72l-5.03-2.4c8.43,1.34,14.43.09,18.4-1.58.71.74,2.18,2.15,4.27,3.55v.15h.22c1.47.96,3.22,1.91,5.23,2.62.17.06.21.21.22.27Zm-1.58-4.93h-3.23c-2.55-1.77-4.05-3.49-4.08-3.53-1.46-1.63-1.81-2.9-1.51-3.44.26-.48,1.3-.86,3.43-.52,11.06,1.73,17.49-.03,21.11-2.1l2.3,3c-2.15,2.96-7.1,7.08-18.01,6.58Zm27.92-6.24l-2.43-.66-2.43.66c-1.06.29-2.18.05-2.66-.57l-4.95-6.45c-.18-.24.03-.86.56-1.58.6-.83,1.42-1.52,2.42-2.06,1.3-.7,3.72-1.84,5.8-1.84.09,0,.18,0,.27,0h.03s1.95,0,1.95,0c2.13-.11,4.72,1.1,6.07,1.83,1,.54,1.82,1.23,2.42,2.06.53.72.75,1.34.56,1.58l-4.95,6.45c-.48.62-1.6.86-2.66.57Zm-1.49-14.54h-1.85c-1.43-.07-2.95.3-4.35.82-1.43-1.85-3-3.69-4.7-5.5.82-.89,3.41-2.94,9.96-2.94s9.12,2.05,9.96,2.94c-1.7,1.81-3.27,3.64-4.7,5.49-1.4-.52-2.92-.89-4.32-.81Zm28.65,22.67c2.09-1.4,3.57-2.81,4.27-3.55,3.97,1.68,9.97,2.93,18.4,1.58l-5.03,2.4c-.29.14-.5.4-.56.72-.06.31.02.64.24.88l3.39,3.83c-4.98.81-19.27,2.54-26.28-2.58-.03-.02-.13-.09-.1-.25,0-.06.05-.2.22-.27,2.01-.71,3.76-1.66,5.23-2.62m1.54-9.52c2.13-.34,3.16.04,3.42.52.3.54-.06,1.81-1.53,3.46-.02.03-1.51,1.74-4.06,3.51h-3.29c-10.87.5-15.82-3.61-17.97-6.58l2.3-3c3.63,2.07,10.05,3.82,21.12,2.1Zm-19.38-7.97c-.11-.19-.24-.39-.39-.6-.78-1.07-1.83-1.97-3.1-2.65-.26-.14-.54-.28-.83-.43,3.59-4.58,8.07-9.05,13.34-13.29.44-.35.51-.99.16-1.43-.35-.44-.99-.51-1.43-.16-2.86,2.3-5.5,4.67-7.89,7.08-1.25-1.31-4.4-3.51-11.37-3.51s-10.11,2.21-11.37,3.51c-2.4-2.42-5.03-4.78-7.89-7.08-.44-.35-1.08-.28-1.43.16-.35.44-.28,1.08.16,1.43,5.27,4.24,9.75,8.71,13.34,13.29-.29.14-.57.29-.83.43-1.27.69-2.32,1.58-3.1,2.65-.15.21-.28.41-.39.6-3.36-3.74-9.64-5.59-13.38-6.4-1.19-.26-2.05-1.33-2.05-2.55v-8.93c0-1.44,1.17-2.61,2.61-2.61h9.89c2.18,0,3,0,6.65-.75,1.46-.3,2.59-.68,3.59-1.01,1.46-.48,2.6-.87,4.25-.81,1.56-.06,2.71.32,4.17.81,1,.33,2.14.71,3.59,1.01,3.65.75,4.47.75,6.65.75h9.89c1.44,0,2.61,1.17,2.61,2.61v8.93c0,1.22-.86,2.29-2.05,2.55-3.74.8-10.02,2.65-13.38,6.4Zm70.35-28.47c.72.23,1.45.39,2.16.54.89.19,1.74.38,2.51.68.12.05.47.19.59.34.18.23-.06,1.03-.71,1.58-.53.45-1.21.77-1.93,1.11-.38.18-.76.36-1.12.55-2.66,1.44-4.68,3.97-5.42,6.77-.14.53-.24,1.06-.33,1.58-.26,1.43-.49,2.67-1.41,3.44-.68.56-1.68.78-2.64.94-2.36.41-4.76.69-7.17.84-1.11.07-2.36.14-3.48.86-.76.49-1.29,1.17-1.75,1.77-.24.31-.46.6-.7.85-1.67,1.74-4.51,1.91-7.05,1.94-2.1.02-4.26.04-6.25-.36-.58-.12-1.15-.27-1.75-.43-1.07-.29-2.17-.58-3.37-.67-1.28-.1-5.02-.04-6.94,1.35-.4.29-.75.54-1.12.7-2.18.98-9.19,3.7-15.25,1.71,2.35-.99,4.79-1.64,6.6-2.03,1.19-.25,2.18-.97,2.83-1.92.74.1,1.55.15,2.44.15,6.98,0,18.05-2.76,22.66-4.24,1.59-.51,3.39-1.08,4.88-2.29.4-.33.76-.68,1.1-1.02.38-.38.74-.73,1.13-1.02,1.16-.85,2.67-1.14,4.26-1.45,1.99-.39,4.05-.79,5.64-2.32,1.43-1.37,1.95-3.16,2.45-4.88.47-1.61.91-3.14,2.09-4.05.47-.37,1.06-.64,1.69-.92.9-.41,1.83-.84,2.59-1.63.71.64,1.65,1.16,2.79,1.52Zm34.52-50.24c.75-.02,1.5-.11,2.22-.2.91-.11,1.76-.22,2.59-.19.13,0,.51.02.67.12.25.16.28,1-.15,1.73-.36.6-.89,1.13-1.46,1.69-.3.29-.6.59-.87.89-2.03,2.24-3.11,5.3-2.88,8.18.04.54.13,1.08.21,1.6.23,1.44.42,2.68-.19,3.71-.45.76-1.33,1.29-2.18,1.77-2.09,1.17-4.26,2.23-6.49,3.16-1.02.43-2.18.91-3,1.96-.56.71-.83,1.53-1.07,2.25-.12.37-.24.72-.38,1.03-1,2.19-3.63,3.3-6.01,4.16-1.97.71-4.01,1.45-6.02,1.73-.59.08-1.17.13-1.79.17-1.1.08-2.24.17-3.4.48-.58.16-1.67.54-2.78,1.11.03-.45,0-.87-.08-1.27,4.41-1.85,8.44-4.87,12.03-7.58,1.33-1,2.84-2.14,3.85-3.77.27-.44.49-.89.7-1.32.24-.48.46-.94.73-1.33.81-1.18,2.14-1.96,3.54-2.78,1.75-1.02,3.56-2.08,4.56-4.05.89-1.77.8-3.62.7-5.42-.09-1.68-.17-3.26.63-4.52.32-.5.79-.95,1.29-1.43.71-.69,1.45-1.4,1.91-2.39.89.37,1.95.55,3.14.51Zm7.17-54.18c.1-.59.35-1.19.62-1.82.39-.91.78-1.85.81-2.94,1.18-.01,2.29-.39,3.09-.76.68-.32,1.33-.69,1.96-1.06.79-.46,1.54-.89,2.31-1.19.12-.04.47-.18.66-.15.29.05.65.81.54,1.65-.09.69-.37,1.39-.68,2.12-.16.39-.32.77-.45,1.17-.99,2.86-.78,6.09.57,8.65.25.48.54.94.82,1.39.77,1.24,1.44,2.3,1.28,3.49-.12.87-.72,1.7-1.32,2.48-1.47,1.9-3.05,3.72-4.73,5.45-.77.8-1.65,1.7-1.99,2.98-.24.88-.16,1.73-.1,2.49.03.39.06.75.05,1.1-.06,2.41-2.04,4.46-3.89,6.18-1.53,1.43-3.12,2.91-4.85,3.95-.51.3-1.03.58-1.58.86-.98.51-2,1.04-2.94,1.78-.36.28-.74.62-1.13,1-.18-.38-.4-.71-.66-.99,2.92-3.3,5.26-7.38,7.18-10.73.83-1.45,1.77-3.09,2.06-4.98.08-.51.1-1.01.13-1.49.03-.54.05-1.04.15-1.51.28-1.41,1.2-2.64,2.16-3.94,1.21-1.63,2.46-3.31,2.6-5.52.13-1.98-.69-3.64-1.48-5.25-.74-1.51-1.44-2.93-1.2-4.4Zm-.73-4.89c0,.71-.32,1.44-.65,2.22-.31.72-.63,1.47-.77,2.31-.36,2.16.53,3.97,1.39,5.72.7,1.42,1.36,2.76,1.27,4.16-.1,1.57-1.11,2.93-2.17,4.36-1.07,1.44-2.17,2.92-2.55,4.81-.13.63-.16,1.24-.19,1.83-.02.45-.04.87-.11,1.28-.23,1.49-1.02,2.88-1.8,4.23-2.05,3.57-4.36,7.58-7.28,10.75-.97-.14-1.84.16-2.65.7.45-2.78.28-5.81-.56-8.82-.13-.46-.28-.93-.43-1.39-.49-1.5-.94-2.92-.69-4.31.16-.92.63-1.81,1.13-2.76.75-1.42,1.52-2.88,1.37-4.63-.09-1.04-.5-1.93-.87-2.72-.3-.65-.59-1.27-.67-1.89-.16-1.33.58-2.67,1.37-4.09.34-.62.7-1.26.99-1.93,1.2-2.72,1.29-6.07.34-9.32,1.76-1.65,3.09-3.8,3.85-6.19.15-.46.28-.91.38-1.36.02-.09.05-.18.07-.28.51-2.05,1.14-4.59,2.51-4.74.87-.1,1.69,1.03,2.07,2.11.19.54.34,1.12.49,1.74.25,1.03.52,2.09,1.04,3.06.42.78.97,1.44,1.5,2.09.86,1.04,1.6,1.94,1.6,3.07Zm8.99-32.12c-.64.91-1.36,1.94-1.5,3.26-.09.9.11,1.74.3,2.47.09.38.18.73.23,1.08.32,2.39-1.31,4.72-2.87,6.72-1.29,1.66-2.62,3.37-4.17,4.67-.45.38-.92.73-1.43,1.1-.76.56-1.53,1.15-2.25,1.85-.23-.58-.52-1.1-.85-1.54,1.69-3.16,3.03-6.67,4.11-9.53.59-1.56,1.26-3.33,1.24-5.24,0-.52-.06-1.01-.11-1.49-.06-.53-.11-1.04-.09-1.52.06-1.44.76-2.8,1.51-4.24.93-1.8,1.9-3.66,1.69-5.86-.19-1.97-1.26-3.49-2.3-4.95-.97-1.37-1.89-2.67-1.88-4.16,0-.6.16-1.23.33-1.9.23-.94.46-1.92.34-2.98,1.07-.17,2.05-.71,2.92-1.3.62-.42,1.21-.9,1.77-1.35.71-.58,1.38-1.12,2.09-1.54.11-.06.44-.25.63-.25h0c.3,0,.77.69.8,1.54.02.7-.15,1.43-.33,2.2-.1.41-.19.81-.26,1.22-.52,2.98.2,6.14,1.93,8.45.33.44.69.85,1.03,1.24.96,1.1,1.79,2.04,1.82,3.24.02.88-.44,1.8-.91,2.66-1.15,2.11-2.42,4.16-3.8,6.13Z"/>
        <path class="cls-5" d="m566.25,77.32c-31.12,19.75-52.76,62.94-52.76,112.93,0,68.58,40.72,124.38,90.78,124.38s90.78-55.8,90.78-124.38c0-49.99-21.64-93.17-52.75-112.92l27.65-33.37c.43-.52.38-1.29-.12-1.75-8.05-7.37-17.63-13.27-29.29-18.02-3.37-1.38-7.03-2.59-11.49-3.81-21.69-5.94-23.44-18.7-23.5-19.24,0-.03-.01-.05-.02-.08,0-.05-.02-.11-.03-.16-.01-.03-.03-.07-.04-.1-.02-.04-.03-.09-.06-.13-.02-.04-.05-.07-.07-.11-.02-.03-.04-.06-.07-.09-.03-.04-.07-.07-.1-.11-.02-.02-.04-.04-.07-.06-.05-.04-.1-.07-.15-.11-.02,0-.03-.02-.05-.03-.22-.12-.48-.18-.75-.16-.42.05-.77.29-.96.63,0,0,0,0,0,.01-.03.06-.06.12-.08.19,0,.01-.01.03-.02.04-.02.06-.03.12-.04.18,0,.02-.01.04-.01.07-.06.54-1.81,13.3-23.5,19.24-4.47,1.22-8.12,2.43-11.49,3.81-11.66,4.75-21.24,10.65-29.29,18.02-.5.46-.55,1.23-.12,1.75l27.65,33.36Zm126.25,112.93c0,67.18-39.58,121.83-88.23,121.83s-88.23-54.65-88.23-121.83,39.58-121.83,88.23-121.83,88.23,54.65,88.23,121.83Zm-123.52-163.7c3.28-1.34,6.84-2.52,11.2-3.71,15.95-4.37,21.9-12.4,24.1-17.3,2.2,4.9,8.15,12.93,24.1,17.3,4.37,1.2,7.93,2.38,11.2,3.71,10.94,4.46,19.99,9.94,27.63,16.73l-27.07,32.67s-.02.03-.03.04c-11-6.5-23.12-10.11-35.84-10.11s-24.83,3.61-35.83,10.11c0-.01-.01-.02-.02-.03l-27.07-32.67c7.64-6.79,16.69-12.27,27.63-16.73Z"/>
        <path class="cls-2" d="m574.91,361.84c1.47.96,3.22,1.91,5.23,2.62.17.06.21.21.22.27.02.16-.07.23-.1.25-7.01,5.13-21.3,3.39-26.28,2.58l3.39-3.83c.21-.24.3-.56.24-.88-.06-.31-.27-.58-.56-.72l-5.03-2.4c8.43,1.34,14.43.09,18.4-1.58.71.74,2.18,2.15,4.27,3.55"/>
        <path class="cls-2" d="m578.78,359.81h-3.23c-2.55-1.77-4.05-3.49-4.08-3.53-1.46-1.63-1.81-2.9-1.51-3.44.26-.48,1.3-.86,3.43-.52,11.06,1.73,17.49-.03,21.11-2.1l2.3,3c-2.15,2.96-7.1,7.08-18.01,6.58Z"/>
        <path class="cls-2" d="m633.86,361.7c2.09-1.4,3.57-2.81,4.27-3.55,3.97,1.68,9.97,2.93,18.4,1.58l-5.03,2.4c-.29.14-.5.4-.56.72-.06.31.02.64.24.88l3.39,3.83c-4.98.81-19.27,2.54-26.28-2.58-.03-.02-.13-.09-.1-.25,0-.06.05-.2.22-.27,2.01-.71,3.76-1.66,5.23-2.62"/>
        <path class="cls-2" d="m635.17,352.32c2.13-.34,3.16.04,3.42.52.3.54-.06,1.81-1.53,3.46-.02.03-1.51,1.74-4.06,3.51h-3.29c-10.87.5-15.82-3.61-17.97-6.58l2.3-3c3.63,2.07,10.05,3.82,21.12,2.1Z"/>
        <path class="cls-2" d="m615.79,344.36c-.11-.19-.24-.39-.39-.6-.78-1.07-1.83-1.97-3.1-2.65-.26-.14-.54-.28-.83-.43,3.59-4.58,8.07-9.05,13.34-13.29.44-.35.51-.99.16-1.43-.35-.44-.99-.51-1.43-.16-2.86,2.3-5.5,4.67-7.89,7.08-1.25-1.31-4.4-3.51-11.37-3.51s-10.11,2.21-11.37,3.51c-2.4-2.42-5.03-4.78-7.89-7.08-.44-.35-1.08-.28-1.43.16-.35.44-.28,1.08.16,1.43,5.27,4.24,9.75,8.71,13.34,13.29-.29.14-.57.29-.83.43-1.27.69-2.32,1.58-3.1,2.65-.15.21-.28.41-.39.6-3.36-3.74-9.64-5.59-13.38-6.4-1.19-.26-2.05-1.33-2.05-2.55v-8.93c0-1.44,1.17-2.61,2.61-2.61h9.89c2.18,0,3,0,6.65-.75,1.46-.3,2.59-.68,3.59-1.01,1.46-.48,2.6-.87,4.25-.81,1.56-.06,2.71.32,4.17.81,1,.33,2.14.71,3.59,1.01,3.65.75,4.47.75,6.65.75h9.89c1.44,0,2.61,1.17,2.61,2.61v8.93c0,1.22-.86,2.29-2.05,2.55-3.74.8-10.02,2.65-13.38,6.4Z"/>
        <path class="cls-1" d="m710.59,98.98c.41-.59.76-1.21,1.09-1.81.43-.76.83-1.47,1.32-2.11.15-.19.35-.43.54-.51.38-.17,1.05.23,1.35.82.27.53.39,1.17.51,1.85.07.37.13.73.22,1.09.66,2.64,2.53,4.89,5.01,6.02.46.21.94.39,1.41.56,1.22.45,2.37.87,2.82,1.76.33.65.26,1.55.16,2.41-.25,2.16-.63,4.32-1.14,6.46-.24,1-.51,2.14-.12,3.3.27.79.78,1.38,1.24,1.91.22.26.43.5.6.74,1.15,1.71.56,4.22-.09,6.43-.55,1.86-1.11,3.78-2.02,5.46-.27.5-.58.99-.88,1.47-.56.89-1.14,1.82-1.54,2.86-.21.54-.5,1.48-.7,2.52-.33-.27-.69-.47-1.05-.62.9-4.16.76-8.66.63-12.33-.05-1.5-.11-3.21-.86-4.76-.2-.42-.44-.8-.67-1.16-.25-.39-.49-.77-.64-1.14-.47-1.13-.35-2.49-.21-3.93.17-1.85.35-3.76-.7-5.47-.94-1.53-2.49-2.29-4-3.03-1.38-.68-2.69-1.32-3.22-2.46-.21-.46-.3-1.01-.4-1.6-.14-.81-.31-1.72-.81-2.53.96-.63,1.69-1.49,2.16-2.19Z"/>
        <path class="cls-1" d="m680.83,56.42c.31-.65.56-1.31.81-1.96.31-.81.6-1.58,1-2.28.12-.21.28-.47.46-.59.35-.23,1.07.08,1.46.61.35.48.56,1.1.78,1.75.12.35.24.71.39,1.05,1.05,2.51,3.23,4.46,5.85,5.2.49.14.99.24,1.48.34,1.27.26,2.47.51,3.05,1.32.42.59.49,1.49.52,2.36.08,2.17.02,4.36-.16,6.57-.09,1.03-.18,2.19.37,3.27.38.74.98,1.25,1.51,1.7.26.22.5.43.7.65,1.4,1.52,1.18,4.09.87,6.37-.26,1.92-.53,3.9-1.18,5.7-.19.54-.42,1.06-.65,1.59-.42.97-.85,1.97-1.1,3.06-.1.45-.2,1.09-.26,1.8-.38-.08-.76-.13-1.15-.12.19-4.11-.6-8.35-1.25-11.82-.28-1.48-.59-3.16-1.57-4.58-.26-.39-.56-.72-.84-1.05-.31-.35-.59-.68-.81-1.03-.64-1.05-.71-2.41-.8-3.86-.11-1.85-.21-3.77-1.51-5.31-1.15-1.37-2.81-1.89-4.41-2.4-1.47-.46-2.85-.9-3.55-1.95-.28-.42-.45-.96-.64-1.52-.26-.78-.56-1.65-1.18-2.38.86-.76,1.44-1.73,1.81-2.49Z"/>
        <path class="cls-1" d="m683.94,100.01c-.62-.14-1.25-.23-1.86-.32-1.34-.19-2.6-.38-3.58-1.03-.55-.36-1.02-.89-1.51-1.44-.24-.26-.47-.53-.72-.78-1.58-1.6-3.55-2.7-5.45-3.76-2.26-1.26-4.4-2.46-5.78-4.39-1.03-1.43-1.55-3.16-2.11-4.99-.25-.83-.51-1.68-.82-2.51-1.1-2.94-2.88-5.63-5.15-7.8-1.41-1.35-2.09-2.59-2.09-3.79.08-.01.18-.02.29-.02,3.2.06,6.5.13,9.51,1.16,3.2,1.1,5.59,3.29,6.39,5.85.16.52.28,1.09.4,1.69.33,1.61.7,3.43,2.19,4.6.7.55,1.52.83,2.24,1.07.65.22,1.27.43,1.7.8.72.61.96,1.65,1.23,2.84.24,1.04.49,2.12,1.1,3.09.96,1.49,2.54,2.27,3.94,2.96.37.18.75.37,1.11.56,4.3,2.34,6.79,4.71,7.62,7.23h0c.16.53.35,1.05.52,1.53.09.25.18.5.26.74.04.12.07.24.11.37-2.51-1.77-6.32-2.93-9.55-3.66Z"/>
        <path class="cls-1" d="m707.16,142.54c-.59-.23-1.2-.42-1.79-.6-1.29-.39-2.52-.76-3.39-1.56-.49-.44-.87-1.03-1.28-1.65-.19-.29-.39-.59-.6-.87-1.32-1.82-3.1-3.2-4.82-4.54-2.05-1.59-3.98-3.09-5.06-5.2-.8-1.57-1.06-3.35-1.34-5.25-.13-.86-.26-1.74-.44-2.61-.65-3.07-2.01-6-3.93-8.48-1.19-1.54-1.68-2.87-1.5-4.06.12,0,.18,0,.29.03,3.15.54,6.41,1.1,9.23,2.57,3,1.57,5.04,4.08,5.45,6.74.08.54.11,1.12.15,1.73.08,1.64.18,3.5,1.48,4.87.61.65,1.38,1.05,2.05,1.4.61.32,1.19.62,1.56,1.04.62.71.7,1.77.79,2.99.08,1.07.16,2.17.63,3.22.72,1.62,2.18,2.62,3.46,3.51.34.24.69.48,1.01.72,2.97,2.26,4.63,5.4,4.79,9.09-.02.25-.05.51-.07.75-.02.22-.04.43-.06.64-1.35-1.8-3.52-3.29-6.62-4.49Z"/>
        <path class="cls-1" d="m709.57,194.38c-.44-.52-.91-1-1.37-1.47-1-1.02-1.95-1.99-2.41-3.24-.26-.71-.36-1.5-.46-2.35-.05-.39-.1-.78-.16-1.17-.41-2.48-1.43-4.74-2.41-6.93-1.18-2.62-2.29-5.1-2.36-7.83-.05-2.03.48-4.01,1.04-6.11.25-.94.51-1.91.72-2.89.72-3.44.75-7.08.08-10.52-.42-2.17-.3-3.8.37-4.97.04.02.08.05.12.09,2.61,2.05,5.32,4.17,7.24,7.03,2.06,3.07,2.83,6.69,2.05,9.67-.16.61-.38,1.22-.61,1.87-.64,1.78-1.31,3.63-.75,5.59.27.94.79,1.71,1.24,2.38.42.62.82,1.21.98,1.85.27,1.09-.14,2.3-.57,3.58-.38,1.12-.77,2.29-.8,3.55-.04,1.96.8,3.59,1.6,5.18.21.41.42.82.61,1.23,1.55,3.37,2.82,6.98,1.84,10.66-.05.2-.12.41-.18.61-.04.11-.07.22-.11.34h0c-.55,1.59-1.42,3.06-2.51,4.27-.01-.03-.02-.05-.03-.08-.14-.31-.3-.61-.46-.92.53-3.93-.18-6.43-2.7-9.43Z"/>
        <path class="cls-1" d="m703.98,245.43c-.35-.58-.74-1.13-1.12-1.66-.83-1.17-1.61-2.27-1.87-3.58-.14-.74-.11-1.54-.08-2.39.01-.4.03-.79.02-1.19-.01-2.52-.66-4.91-1.28-7.22-.75-2.78-1.45-5.4-1.09-8.11.27-2.01,1.11-3.89,1.99-5.87.4-.89.81-1.8,1.16-2.73,1.26-3.29,1.86-6.87,1.75-10.38-.07-2.21.31-3.8,1.15-4.85.03.03.07.06.1.1,2.26,2.44,4.59,4.96,6.03,8.09,1.55,3.36,1.74,7.05.5,9.88-.25.57-.57,1.14-.9,1.75-.92,1.66-1.87,3.38-1.62,5.41.12.97.51,1.81.85,2.55.32.68.62,1.33.67,1.98.09,1.12-.5,2.25-1.13,3.44-.55,1.05-1.12,2.14-1.35,3.38-.35,1.93.22,3.67.76,5.36.14.44.28.87.4,1.31,1.18,4.22.87,8.62-.78,11.92-.15.2-.3.4-.45.59-.6.77-1.3,1.48-2.06,2.1.46-3.53-.13-7.31-1.68-9.89Z"/>
        <path class="cls-1" d="m679.07,290.82c-.09-.67-.24-1.33-.37-1.97-.31-1.4-.59-2.72-.31-4.03.16-.73.5-1.46.86-2.24.17-.36.34-.72.49-1.08.98-2.32,1.32-4.77,1.66-7.14.4-2.85.78-5.53,2.18-7.88,1.04-1.75,2.54-3.14,4.14-4.61.71-.66,1.45-1.34,2.14-2.06,2.44-2.53,4.41-5.59,5.68-8.86.8-2.06,1.77-3.37,2.96-4.01.02.04.04.08.05.14,1.12,3.13,2.28,6.36,2.37,9.81.11,3.7-1.17,7.17-3.42,9.28-.46.43-.97.83-1.52,1.25-1.5,1.17-3.04,2.37-3.62,4.33-.27.94-.24,1.86-.22,2.68.02.75.05,1.46-.16,2.09-.35,1.07-1.34,1.87-2.39,2.72-.92.75-1.87,1.52-2.57,2.58-1.08,1.64-1.24,3.47-1.4,5.23-.04.46-.08.92-.14,1.36-.55,4.2-2.65,7.9-5.91,10.43-.27.18-.54.35-.8.53-.25.17-.5.34-.75.49-.7.46-1.46.83-2.24,1.14,2.07-3.12,3.7-7.07,3.27-10.19Z"/>
        <path class="cls-1" d="m638.56,325.91c.14-.67.22-1.34.3-1.98.17-1.42.34-2.76,1.04-3.9.39-.64.96-1.21,1.55-1.82.28-.28.55-.57.82-.86,1.69-1.87,2.82-4.07,3.92-6.19,1.32-2.55,2.57-4.96,4.66-6.72,1.56-1.3,3.44-2.12,5.43-2.99.89-.39,1.81-.79,2.7-1.24,3.14-1.58,6.01-3.82,8.29-6.48,1.44-1.68,2.79-2.6,4.12-2.81,0,.04,0,.09,0,.15.02,3.32.05,6.76-1,10.04-1.12,3.53-3.48,6.38-6.29,7.63-.57.25-1.19.46-1.85.68-1.8.61-3.66,1.23-4.85,2.9-.57.79-.85,1.68-1.09,2.46-.23.72-.44,1.4-.84,1.92-.69.89-1.89,1.32-3.16,1.78-1.12.4-2.27.82-3.28,1.59-1.56,1.19-2.32,2.86-3.05,4.48-.19.42-.38.84-.59,1.24-1.33,2.64-5.77,5.16-10.12,6.92,1.91-1.79,2.69-3.91,3.27-6.79Z"/>
        <path class="cls-1" d="m553.73,304.44c3.38,2.23,6.87,4.53,9.62,7.35,5.44,5.57,8.59,13.42,8.26,20.18-4.5-3.91-7.03-8.18-9.33-12.06-2.52-4.26-4.7-7.93-8.78-10.11-2.69-1.43-5.57-2.31-8.41-3.07v-.03c-1.14-2.69-2.2-5.24-2.63-8.05-.14-.93-.18-2.3-.18-3.58,3.06,3.84,7.31,6.64,11.44,9.37Z"/>
        <path class="cls-1" d="m515.18,258.53c.19-.92.63-2.22,1.07-3.42,1.54,4.66,4.55,8.76,7.49,12.76,2.39,3.26,4.87,6.63,6.48,10.23,3.28,7.36,3.14,15.53-.35,22.02-.24-1.58-.44-3.19-.65-4.88-.99-7.97-2.01-16.21-7.55-22.42-2.03-2.28-4.42-4.09-6.83-5.8v-.02c-.13-2.92-.24-5.68.34-8.47Z"/>
        <path class="cls-1" d="m502.49,212.11c.49-.81,1.34-1.88,2.16-2.86-.11,4.91,1.35,9.78,2.78,14.53,1.16,3.87,2.37,7.88,2.68,11.81.62,7.87-2.13,15.37-7.37,20.33-.02-.03-.04-.06-.06-.09-.06-.09-.12-.2-.19-.31.29-1.46.62-2.95.94-4.4,1.72-7.71,3.51-15.69.39-23.37-1.15-2.82-2.8-5.34-4.49-7.75v-.02c.87-2.79,1.68-5.43,3.16-7.86Z"/>
        <path class="cls-1" d="m505.42,162.81c.72-.61,1.86-1.37,2.95-2.04-1.65,4.62-1.79,9.71-1.92,14.67-.11,4.04-.22,8.22-1.16,12.05-1.93,7.85-7.23,14.7-13.68,17.8-.04-.19-.09-.41-.14-.67-.02-.08-.04-.18-.06-.27.78-1.38,1.61-2.76,2.49-4.21,4.14-6.84,8.43-13.92,7.89-22.07-.2-3.04-.98-5.95-1.83-8.77l.02-.02c1.69-2.38,3.29-4.63,5.46-6.47Z"/>
        <path class="cls-1" d="m518.49,115.26c.83-.45,2.09-.96,3.3-1.41-2.54,4.2-3.7,9.15-4.83,13.98-.92,3.94-1.87,8.01-3.57,11.57-3.33,7.02-9.32,12.11-16.2,13.87.01-.1.01-.2.02-.29,0-.08.02-.18.03-.27.99-1.14,2.02-2.28,3.02-3.39,5.13-5.66,10.44-11.52,11.58-19.85.41-3.02.24-6.02-.03-8.96h.02c2.14-2.01,4.16-3.89,6.65-5.26Z"/>
        <path class="cls-1" d="m544.15,78.17c.84-.1,2.04-.1,3.2-.07-3.65,2.77-6.38,6.65-9.04,10.42-2.2,3.12-4.47,6.34-7.2,8.85-5.27,4.84-12.11,7.17-18.61,6.44.05-.16.11-.34.17-.54.02-.05.04-.12.06-.18,1.19-.6,2.4-1.19,3.58-1.75,6.46-3.09,13.14-6.29,17.05-13.12,1.43-2.49,2.34-5.17,3.14-7.83,2.57-.98,5-1.91,7.66-2.22Z"/>
        <path class="cls-1" d="m509.9,73.46c1.16-1.17,2.47-2.25,3.74-3.3,1.32-1.09,2.68-2.21,3.92-3.47,3.18-3.21,5.52-7.26,6.76-11.61.17.25.31.48.41.67,2.36,4.52.84,10.31-.08,12.95-1.79,1.31-3.46,2.72-4.95,4.22-6.14,6.18-10.75,16.5-12.37,27.65-.58.47-1.14.96-1.7,1.45-3.23-8.83-2.39-21.86,4.27-28.57Z"/>
        <path class="cls-1" d="m482.99,124.25c.68-1.61,1.53-3.2,2.37-4.73.86-1.59,1.75-3.24,2.47-4.96,1.86-4.45,2.55-9.41,2.01-14.2.31.21.6.41.79.58,4.14,3.53,4.94,9.88,5.08,12.83-1.24,2-2.32,4.05-3.19,6.13-3.87,9.2-4.57,21.13-1.91,31.95-.45.58-.88,1.17-1.3,1.77-7.32-7.61-10.11-20.32-6.31-29.37Z"/>
        <path class="cls-1" d="m472.46,178.76c.34-1.71.86-3.44,1.36-5.11.52-1.73,1.06-3.52,1.42-5.36.93-4.73.61-9.73-.89-14.32.35.14.67.28.89.41,4.76,2.62,6.82,8.68,7.56,11.55-.81,2.21-1.45,4.44-1.89,6.64-1.8,9.14.09,21.5,4.81,31.8-.32.81-.61,1.62-.89,2.44-8.75-6.09-14.26-18.43-12.37-28.05Z"/>
        <path class="cls-1" d="m476.2,237.6c-.22-1.73-.26-3.53-.31-5.28-.05-1.81-.1-3.68-.33-5.53-.6-4.78-2.48-9.43-5.34-13.31.38.02.72.06.97.11,5.35,1,9.2,6.1,10.8,8.59-.08,2.35.01,4.67.29,6.9,1.24,9.89,6.65,20.64,14.48,28.77,0,.71,0,1.43.01,2.14-10.3-3.18-19.39-12.96-20.57-22.39Z"/>
        <path class="cls-1" d="m498.95,291.36c-.78-1.56-1.43-3.24-2.06-4.87-.65-1.69-1.32-3.44-2.17-5.11-2.17-4.3-5.49-8.05-9.49-10.75.36-.1.7-.19.95-.23,5.37-.85,10.72,2.66,13.05,4.48.72,2.24,1.57,4.4,2.58,6.4,4.56,9.07,12.86,17.1,22.76,22.04.26.78.53,1.55.83,2.31-10.55.64-22.05-5.51-26.46-14.28Z"/>
        <path class="cls-1" d="m538.61,335.07c-1.28-1.19-2.47-2.55-3.62-3.86-1.19-1.36-2.43-2.76-3.8-4.04-3.53-3.28-7.94-5.65-12.63-6.8.31-.22.59-.42.82-.54,4.74-2.66,10.98-1.21,13.8-.32,1.45,1.86,3,3.58,4.64,5.11,8.81,8.22,23.63,13.73,39.66,14.74.44.28.94.48,1.46.59,1.46.31,3.33.79,5.24,1.49-29.24,6.01-38.27.43-45.57-6.38Z"/>
        <path class="cls-2" d="m606.7,353.57l-2.43-.66-2.43.66c-1.06.29-2.18.05-2.66-.57l-4.95-6.45c-.18-.24.03-.86.56-1.58.6-.83,1.42-1.52,2.42-2.06,1.3-.7,3.72-1.84,5.8-1.84.09,0,.18,0,.27,0h.03s1.95,0,1.95,0c2.13-.11,4.72,1.1,6.07,1.83,1,.54,1.82,1.23,2.42,2.06.53.72.75,1.34.56,1.58l-4.95,6.45c-.48.62-1.6.86-2.66.57Z"/>
        <path class="cls-1" d="m686.14,315.89c.72.23,1.45.39,2.16.54.89.19,1.74.38,2.51.68.12.05.47.19.59.34.18.23-.06,1.03-.71,1.58-.53.45-1.21.77-1.93,1.11-.38.18-.76.36-1.12.55-2.66,1.44-4.68,3.97-5.42,6.77-.14.53-.24,1.06-.33,1.58-.26,1.43-.49,2.67-1.41,3.44-.68.56-1.68.78-2.64.94-2.36.41-4.76.69-7.17.84-1.11.07-2.36.14-3.48.86-.76.49-1.29,1.17-1.75,1.77-.24.31-.46.6-.7.85-1.67,1.74-4.51,1.91-7.05,1.94-2.1.02-4.26.04-6.25-.36-.58-.12-1.15-.27-1.75-.43-1.07-.29-2.17-.58-3.37-.67-1.28-.1-5.02-.04-6.94,1.35-.4.29-.75.54-1.12.7-2.18.98-9.19,3.7-15.25,1.71,2.35-.99,4.79-1.64,6.6-2.03,1.19-.25,2.18-.97,2.83-1.92.74.1,1.55.15,2.44.15,6.98,0,18.05-2.76,22.66-4.24,1.59-.51,3.39-1.08,4.88-2.29.4-.33.76-.68,1.1-1.02.38-.38.74-.73,1.13-1.02,1.16-.85,2.67-1.14,4.26-1.45,1.99-.39,4.05-.79,5.64-2.32,1.43-1.37,1.95-3.16,2.45-4.88.47-1.61.91-3.14,2.09-4.05.47-.37,1.06-.64,1.69-.92.9-.41,1.83-.84,2.59-1.63.71.64,1.65,1.16,2.79,1.52Z"/>
        <path class="cls-1" d="m720.66,265.65c.75-.02,1.5-.11,2.22-.2.91-.11,1.76-.22,2.59-.19.13,0,.51.02.67.12.25.16.28,1-.15,1.73-.36.6-.89,1.13-1.46,1.69-.3.29-.6.59-.87.89-2.03,2.24-3.11,5.3-2.88,8.18.04.54.13,1.08.21,1.6.23,1.44.42,2.68-.19,3.71-.45.76-1.33,1.29-2.18,1.77-2.09,1.17-4.26,2.23-6.49,3.16-1.02.43-2.18.91-3,1.96-.56.71-.83,1.53-1.07,2.25-.12.37-.24.72-.38,1.03-1,2.19-3.63,3.3-6.01,4.16-1.97.71-4.01,1.45-6.02,1.73-.59.08-1.17.13-1.79.17-1.1.08-2.24.17-3.4.48-.58.16-1.67.54-2.78,1.11.03-.45,0-.87-.08-1.27,4.41-1.85,8.44-4.87,12.03-7.58,1.33-1,2.84-2.14,3.85-3.77.27-.44.49-.89.7-1.32.24-.48.46-.94.73-1.33.81-1.18,2.14-1.96,3.54-2.78,1.75-1.02,3.56-2.08,4.56-4.05.89-1.77.8-3.62.7-5.42-.09-1.68-.17-3.26.63-4.52.32-.5.79-.95,1.29-1.43.71-.69,1.45-1.4,1.91-2.39.89.37,1.95.55,3.14.51Z"/>
        <path class="cls-1" d="m727.83,211.46c.1-.59.35-1.19.62-1.82.39-.91.78-1.85.81-2.94,1.18-.01,2.29-.39,3.09-.76.68-.32,1.33-.69,1.96-1.06.79-.46,1.54-.89,2.31-1.19.12-.04.47-.18.66-.15.29.05.65.81.54,1.65-.09.69-.37,1.39-.68,2.12-.16.39-.32.77-.45,1.17-.99,2.86-.78,6.09.57,8.65.25.48.54.94.82,1.39.77,1.24,1.44,2.3,1.28,3.49-.12.87-.72,1.7-1.32,2.48-1.47,1.9-3.05,3.72-4.73,5.45-.77.8-1.65,1.7-1.99,2.98-.24.88-.16,1.73-.1,2.49.03.39.06.75.05,1.1-.06,2.41-2.04,4.46-3.89,6.18-1.53,1.43-3.12,2.91-4.85,3.95-.51.3-1.03.58-1.58.86-.98.51-2,1.04-2.94,1.78-.36.28-.74.62-1.13,1-.18-.38-.4-.71-.66-.99,2.92-3.3,5.26-7.38,7.18-10.73.83-1.45,1.77-3.09,2.06-4.98.08-.51.1-1.01.13-1.49.03-.54.05-1.04.15-1.51.28-1.41,1.2-2.64,2.16-3.94,1.21-1.63,2.46-3.31,2.6-5.52.13-1.98-.69-3.64-1.48-5.25-.74-1.51-1.44-2.93-1.2-4.4Z"/>
        <path class="cls-1" d="m736.09,174.45c-.64.91-1.36,1.94-1.5,3.26-.09.9.11,1.74.3,2.47.09.38.18.73.23,1.08.32,2.39-1.31,4.72-2.87,6.72-1.29,1.66-2.62,3.37-4.17,4.67-.45.38-.92.73-1.43,1.1-.76.56-1.53,1.15-2.25,1.85-.23-.58-.52-1.1-.85-1.54,1.69-3.16,3.03-6.67,4.11-9.53.59-1.56,1.26-3.33,1.24-5.24,0-.52-.06-1.01-.11-1.49-.06-.53-.11-1.04-.09-1.52.06-1.44.76-2.8,1.51-4.24.93-1.8,1.9-3.66,1.69-5.86-.19-1.97-1.26-3.49-2.3-4.95-.97-1.37-1.89-2.67-1.88-4.16,0-.6.16-1.23.33-1.9.23-.94.46-1.92.34-2.98,1.07-.17,2.05-.71,2.92-1.3.62-.42,1.21-.9,1.77-1.35.71-.58,1.38-1.12,2.09-1.54.11-.06.44-.25.63-.25h0c.3,0,.77.69.8,1.54.02.7-.15,1.43-.33,2.2-.1.41-.19.81-.26,1.22-.52,2.98.2,6.14,1.93,8.45.33.44.69.85,1.03,1.24.96,1.1,1.79,2.04,1.82,3.24.02.88-.44,1.8-.91,2.66-1.15,2.11-2.42,4.16-3.8,6.13Z"/>
        <path class="cls-2" d="m666.26,62.32c-.12-.23-.25-.47-.39-.72-1.11-2.04-1.88-3.68-1.01-4.61.65-.69,2-.53,2.98-.09.48.22.94.49,1.43.78.83.49,1.69.99,2.69,1.27.8.22,1.61.28,2.4.34,1.28.1,2.38.18,3.05.87.4.42.62,1.08.85,1.77.22.67.45,1.37.88,2.01,1.09,1.65,2.97,2.25,4.63,2.77,1.38.44,2.69.85,3.46,1.77.86,1.02.94,2.52,1.03,4.11.09,1.63.19,3.32,1.09,4.8.3.5.66.91,1.01,1.31.26.3.5.57.7.86.73,1.07.99,2.46,1.24,3.8.71,3.79,1.5,8.08,1.16,12.17,0,0-.01,0-.02.01-.48.38-.8.82-1.01,1.3-1.87-2.15-4.44-3.73-6.5-4.85-.38-.21-.78-.41-1.19-.6-1.27-.63-2.48-1.22-3.13-2.23-.43-.66-.62-1.53-.83-2.44-.31-1.35-.66-2.88-1.89-3.93-.72-.62-1.59-.92-2.36-1.18-.62-.21-1.21-.41-1.64-.75-.9-.7-1.16-2.01-1.45-3.4-.13-.62-.26-1.27-.45-1.89-.79-2.53-2.78-4.73-5.48-6.19.3-2.42-.13-4.9-1.27-7.07Z"/>
        <path class="cls-2" d="m695.3,102.63c-.09-.25-.18-.51-.27-.77-.79-2.19-1.32-3.92-.31-4.71.74-.59,2.06-.23,2.96.36.44.28.86.62,1.3.98.75.6,1.52,1.23,2.47,1.65.75.34,1.55.52,2.33.69,1.25.29,2.33.53,2.88,1.32.34.48.45,1.16.57,1.88.12.7.24,1.42.56,2.12.83,1.8,2.6,2.67,4.17,3.43,1.3.64,2.53,1.24,3.16,2.27.7,1.13.56,2.63.41,4.22-.15,1.63-.31,3.31.36,4.91.22.54.52,1,.8,1.45.21.33.41.64.56.96.56,1.16.61,2.58.66,3.95.13,3.81.27,8.09-.63,12.05-.04,0-.09,0-.13.02-.98.27-1.65.88-2.12,1.67-.91-2.4-2.49-4.48-4.69-6.15-.35-.27-.72-.52-1.08-.77-1.17-.81-2.27-1.57-2.76-2.67-.32-.72-.39-1.6-.46-2.54-.1-1.38-.22-2.95-1.28-4.17-.62-.72-1.44-1.14-2.16-1.52-.58-.3-1.14-.59-1.51-.99-.78-.83-.85-2.17-.92-3.58-.03-.64-.07-1.29-.17-1.94-.41-2.62-2.05-5.09-4.49-6.94.66-2.35.6-4.87-.2-7.18Z"/>
        <path class="cls-2" d="m715.92,147.5c.03-.3.05-.6.08-.92.18-2.1.4-4.71,1.73-5.08.85-.23,1.83.75,2.38,1.76.1.18.18.36.27.55.09.3.21.57.37.82.04.09.08.18.12.27.41.97.84,1.98,1.51,2.86.54.7,1.18,1.27,1.81,1.82,1.01.89,1.89,1.66,2.06,2.78.11.7-.09,1.47-.29,2.3-.19.76-.38,1.55-.39,2.4-.02,2.19,1.15,3.84,2.27,5.43.91,1.29,1.77,2.51,1.91,3.9.15,1.56-.63,3.06-1.46,4.65-.83,1.59-1.68,3.23-1.76,5.15-.03.64.04,1.25.1,1.84.05.45.09.87.1,1.27.01,1.51-.56,3.01-1.1,4.46-1.01,2.68-2.25,5.94-3.78,8.87-.54-.25-1.11-.37-1.69-.3-1.06.12-1.84.64-2.43,1.4-.43-1.97-1.19-3.88-2.04-5.71-.2-.44-.42-.87-.64-1.31-.72-1.41-1.39-2.73-1.37-4.15.02-.93.34-1.89.68-2.9.51-1.52,1.04-3.09.62-4.79-.25-1.01-.8-1.83-1.29-2.55-.4-.6-.78-1.16-.96-1.77-.37-1.29.15-2.73.7-4.26.24-.67.49-1.36.67-2.06.75-2.88.31-6.2-1.13-9.25,1.63-2.1,2.66-4.73,2.93-7.49Z"/>
        <path class="cls-2" d="m714.16,250.44c.84.26,1.15,1.61,1.08,2.76-.04.58-.13,1.16-.23,1.79-.17,1.04-.34,2.12-.24,3.23.08.88.32,1.71.56,2.51.28.96.54,1.82.46,2.63,0,0-.07.59-.2.83-.35.61-.86,1.2-1.47,1.79-.57.54-1.15,1.11-1.61,1.82-1.18,1.84-1.07,3.86-.97,5.8.08,1.58.16,3.07-.47,4.32-.71,1.4-2.17,2.25-3.71,3.16-1.54.9-3.14,1.84-4.23,3.42-.37.53-.63,1.08-.89,1.61-.2.4-.38.78-.6,1.13-.79,1.28-2.07,2.25-3.31,3.18-3.55,2.68-7.54,5.67-11.8,7.4-.07-.06-.13-.13-.2-.18-.61-.45-1.26-.64-1.92-.66,1.72-2.39,2.84-5.2,3.24-8.25.06-.48.11-.96.15-1.45.14-1.57.28-3.06,1.06-4.24.51-.78,1.29-1.41,2.12-2.09,1.24-1.01,2.53-2.06,3.08-3.72.33-.99.3-1.97.27-2.84-.02-.72-.04-1.4.13-2,.37-1.29,1.58-2.23,2.87-3.23.56-.44,1.14-.89,1.67-1.38,2.17-2.03,3.57-5.08,3.98-8.43,2.49-.91,4.77-2.58,6.47-4.78.09-.11.5-.61.58-.77,1.26-1.68,2.83-3.74,4.15-3.34Z"/>
        <path class="cls-2" d="m647.35,326.75c.22-.43.42-.87.62-1.32.65-1.44,1.27-2.79,2.4-3.65.74-.56,1.69-.91,2.69-1.27,1.51-.54,3.07-1.11,4.14-2.5.64-.83.93-1.76,1.19-2.59.22-.69.42-1.33.79-1.85.78-1.09,2.23-1.58,3.77-2.1.67-.23,1.37-.46,2.03-.75,2.72-1.2,5.04-3.61,6.54-6.65,2.66-.03,5.36-.86,7.69-2.37.25-.16.51-.33.77-.51.26-.17.52-.35.79-.52h0s.05-.03.07-.05c1.56-1,3.25-1.92,4.18-1.24.71.52.55,1.9.11,2.96-.15.35-.32.69-.51,1.05-.18.25-.33.52-.43.79h0c-.46.86-.92,1.75-1.17,2.74-.22.86-.26,1.72-.3,2.55-.05,1-.1,1.9-.43,2.63,0,0-.38.62-.47.71-.48.52-1.21.85-1.98,1.2-.71.33-1.45.66-2.13,1.19-1.72,1.35-2.29,3.29-2.83,5.16-.44,1.52-.86,2.95-1.87,3.92-1.13,1.09-2.79,1.41-4.55,1.75-1.76.34-3.57.7-5.13,1.83-.52.38-.95.81-1.38,1.23-.32.32-.62.61-.94.87-1.17.95-2.7,1.44-4.18,1.91-5.47,1.75-17.65,4.61-23.65,4.05,0-.05,0-.11.01-.16,2.88-.98,11.76-4.34,14.12-9.02Z"/>
        <path class="cls-2" d="m542.72,308.46c3.44.9,6.69,1.74,9.71,3.35,3.52,1.87,5.54,5.3,7.89,9.26,2.87,4.85,6.41,10.83,13.94,15.74-14.2-1.48-27.06-6.55-34.88-13.85-6.07-5.66-10.89-13.9-13.32-22.59.56.47,1.16.94,1.75,1.4.22.17.41.32.57.44,2.1,1.68,4.51,3.05,7.16,4.08,2.35.91,4.81,1.55,7.18,2.17Z"/>
        <path class="cls-2" d="m506.04,263.3c1.89,1.67,3.97,3.12,5.99,4.53,2.92,2.03,5.67,3.95,7.95,6.51,5.06,5.69,6.04,13.57,6.99,21.19.12.97.25,1.96.38,2.94-.91-.77-1.79-1.63-2.19-2.33-.3-.52-.92-.74-1.48-.53-.56.21-.88.78-.77,1.37.22,1.11.48,2.21.77,3.31-8.62-4.76-15.77-11.95-19.82-20.01-3.73-7.41-5.4-16.82-4.67-25.81.37.64.76,1.28,1.16,1.92.14.23.27.44.38.61,1.39,2.3,3.18,4.43,5.31,6.31Z"/>
        <path class="cls-2" d="m496.4,219.8c2.07,2.89,4.02,5.63,5.31,8.8,2.85,7.01,1.15,14.64-.5,22.01-.15.66-.29,1.32-.44,1.99-.46-.87-.85-1.75-.96-2.4-.09-.59-.59-1.02-1.19-1.03-.61-.02-1.11.42-1.2,1.02-.24,1.47-.41,2.95-.52,4.45-6.69-7.56-11.26-17.07-12.36-25.84-.97-7.75.37-16.56,3.62-24.42l.04-.02s-.01-.03-.02-.04c.19-.47.39-.94.6-1.4.13.72.29,1.47.45,2.2.06.27.11.5.15.7.54,2.64,1.51,5.23,2.89,7.72,1.22,2.21,2.7,4.27,4.12,6.27Z"/>
        <path class="cls-2" d="m499.51,178.22c.5,7.44-3.6,14.2-7.56,20.74-.38.63-.76,1.26-1.14,1.9-.07-.67-.08-1.3,0-1.77.11-.59-.22-1.16-.78-1.36-.56-.2-1.18.03-1.47.55-.57,1.04-1.11,2.11-1.61,3.2-3.91-9.46-5.4-20.33-3.8-28.47,1.61-8.14,6.06-16.59,12.15-23.24-.1.73-.19,1.48-.26,2.22-.03.27-.05.52-.08.72-.32,2.67-.21,5.45.32,8.24.47,2.48,1.22,4.9,1.95,7.25,1.06,3.4,2.05,6.6,2.28,10.02Z"/>
        <path class="cls-2" d="m541.57,64.15c-.17.2-.31.38-.44.52-1.65,1.94-3.02,4.18-4.06,6.65-.93,2.2-1.6,4.49-2.25,6.72-.94,3.22-1.83,6.25-3.43,9.05-3.56,6.22-9.63,9.12-16.06,12.2-.49.24-1,.48-1.5.72.32-.75.67-1.43,1.03-1.85.39-.45.39-1.11,0-1.57-.39-.46-1.04-.56-1.55-.25-1.13.69-2.24,1.42-3.32,2.2,1.82-9.76,5.96-18.59,11.33-24,5.47-5.5,13.29-9.78,21.48-11.84-.41.47-.83.96-1.23,1.45Z"/>
        <path class="cls-2" d="m511.2,100.46c-.25.69-.48,1.41-.71,2.13-.08.26-.16.49-.22.68-.85,2.55-1.3,5.29-1.35,8.13-.04,2.52.21,5.05.45,7.49.35,3.54.68,6.88.21,10.27-1.05,7.63-5.89,12.97-11.02,18.63-.26.28-.52.57-.78.86.16-.74.36-1.42.61-1.88.29-.52.15-1.17-.32-1.54-.47-.37-1.13-.34-1.57.07-1.44,1.34-2.81,2.77-4.1,4.28-2.08-9.89-1.29-20.53,2.19-28.82,3.21-7.65,9.28-15.03,16.59-20.32Z"/>
        <path class="cls-2" d="m727.1,206.57c0,.71-.32,1.44-.65,2.22-.31.72-.63,1.47-.77,2.31-.36,2.16.53,3.97,1.39,5.72.7,1.42,1.36,2.76,1.27,4.16-.1,1.57-1.11,2.93-2.17,4.36-1.07,1.44-2.17,2.92-2.55,4.81-.13.63-.16,1.24-.19,1.83-.02.45-.04.87-.11,1.28-.23,1.49-1.02,2.88-1.8,4.23-2.05,3.57-4.36,7.58-7.28,10.75-.97-.14-1.84.16-2.65.7.45-2.78.28-5.81-.56-8.82-.13-.46-.28-.93-.43-1.39-.49-1.5-.94-2.92-.69-4.31.16-.92.63-1.81,1.13-2.76.75-1.42,1.52-2.88,1.37-4.63-.09-1.04-.5-1.93-.87-2.72-.3-.65-.59-1.27-.67-1.89-.16-1.33.58-2.67,1.37-4.09.34-.62.7-1.26.99-1.93,1.2-2.72,1.29-6.07.34-9.32,1.76-1.65,3.09-3.8,3.85-6.19.15-.46.28-.91.38-1.36.02-.09.05-.18.07-.28.51-2.05,1.14-4.59,2.51-4.74.87-.1,1.69,1.03,2.07,2.11.19.54.34,1.12.49,1.74.25,1.03.52,2.09,1.04,3.06.42.78.97,1.44,1.5,2.09.86,1.04,1.6,1.94,1.6,3.07Z"/>
      </g>
      <g>
        <path class="cls-3" d="m220.9,114.43c-.98.65-2.93,4.04-4.95,2.47-2.02-1.56-1.11-1.43-2.08.13-.98,1.56-.98,1.63-2.08,2.34s-2.08.91-3.52.91-1.82-.13-2.6-1.82c-.78-1.69-3.13,1.24-2.34,4.95.78,3.71,4.82,2.21,6.25,1.69,1.43-.52,1.17-1.37,3.26-.78,2.08.59,5.99-.98,8.34-4.43,2.34-3.45.72-6.12-.26-5.47Z"/>
        <path class="cls-3" d="m379.62,281.8c2.76-3.72,2.13-6.49-.57-10.06-2.25-2.98-5.47-5.64-6.93-5.71-2.53-.13-12.26,15.71-12.21,15.85.26.65,6.87,3.37,8.04,6.04,2.65,6.04,9.75-3.52,11.67-6.12Z"/>
        <path class="cls-3" d="m104.98,269.55c.78-3.32-2.93-5.41-4.69-6.51-1.76-1.11-5.34-5.15-7.42-2.21-2.08,2.93-7.16,10.48-8.86,13.81-1.69,3.32,2.74,3.45,5.08,5.34,2.34,1.89,2.08,1.82,2.74,3.13,1.15,2.3,7.41-4.85,8.33-5.95,2.28-2.71,4.41-5.81,4.83-7.6Z"/>
        <path class="cls-3" d="m124.91,267.99c.85-4.04-4.69-8.21-7.42-9.77-2.74-1.56-2.21-1.43-3.52,0-1.3,1.43-3.32,4.69-4.95,6.64-1.63,1.95-2.93,4.1-4.43,6.9-1.5,2.8.72,2.41,4.3,5.21,3.58,2.8,2.8,5.6,5.99,3.91,3.19-1.69,9.18-8.86,10.03-12.89Z"/>
        <path class="cls-3" d="m37.38,193.49c-.92.26-7.42,11.85-8.47,14.72-1.04,2.87,1.95,4.17,4.3,5.73,2.34,1.56,2.41,1.56,3.26,2.74,3.37,4.67,5.47,1.21,9.23-4.52,1.63-2.48,2.87-5.11,3.01-6.94.33-4.1-1.95-6.19-3.91-7.68-1.95-1.5-6.5-4.3-7.42-4.04Z"/>
        <path class="cls-3" d="m382.1,166.32c1.11-5.6-.85-3.52-1.82-1.04-.98,2.47-.91,2.67-1.69,5.08-.78,2.41-1.75,3.05-3.65,9.9-1.9,6.85-6.6,38.02-5.99,47.02.61,9,4.88,11.32,9.47,11.27,4.58-.04,11.29-16.54,11.37-20.52.08-3.98.26-6.32-1.82-1.43-2.08,4.88-8.47,4.1-10.55-2.74-2.08-6.84,3.58-41.94,4.69-47.54Z"/>
        <path class="cls-3" d="m0,241.68c.33,7.84,2.07,14.17,11.84,20.04,6.45,3.03,14.56,3.43,21,1.31,9.9-3.27,19.68-11.34,24.47-18.35,4.39-6.42,7.58-12.75,9.89-20.17,2.66-8.57,4.99-19.16,5.22-23.46.13-2.41.26-4.36.39-6.51.13-2.15.07-4.3.26-6.38.2-2.08,2.74-13.52.65-12.76-2.09.76-7.68,14.2-8.08,18.1-.39,3.91-.26,6.84-.39,10.81-.13,3.97.59,6.25.13,11.33-.46,5.08-4.56,13.09-8.6,17.19-6.62,6.72-16.35,10.03-25.53,11.2-3.06.39-8.27-.13-10.29-.65-5.79-1.49-12.09-4.64-13.81-10.81-1.43-5.15-.2-16.35,1.95-21.1,2.15-4.75,2.93-6.9,3.78-8.86.85-1.95,4.24-8.53,2.74-9.12-1.51-.59-8.92,15.76-10.16,18.5-4.22,9.34-5.47,19.56-5.47,29.7Z"/>
        <path class="cls-3" d="m127.77,193.23c-1.76.91-3.52,5.27-5.73,6.9-2.21,1.63-9.18,5.66-10.68,7.42-1.5,1.76-1.5,2.08-2.74,3.65-1.09,1.38-1.61,3.95-3.33,7.44-2.79,7.11-8.52,11-13.97,14.13-1.03.6-11.76,6.29-12.14,6.82-.65.91-1.95,3.78-.26,4.17,3.8.88,15.87-3.23,19.28-5.73,3.91-2.87,6.9-13.35,9.12-16.41,2.21-3.06,4.69-5.14,6.9-5.99,2.21-.85,5.86-3.19,7.55-5.34,1.69-2.15,3.52-6.64,4.56-8.21,1.04-1.57,3.19-9.77,1.43-8.86Z"/>
        <path class="cls-3" d="m354.02,130c2.76-3.72,2.13-6.49-.57-10.06-2.26-2.98-5.47-5.64-6.93-5.71-2.53-.13-12.26,15.71-12.21,15.85.26.65,6.87,3.37,8.04,6.04,2.65,6.04,9.75-3.52,11.67-6.12Z"/>
        <path class="cls-3" d="m151.35,145.95c-1.12.99-5.8,12.11-6.38,14.2-.59,2.08-1.5,5.27-2.08,8.21-1.75,8.73-1.64,18.48-3.26,27.22-.78,4.23-1.17,7.23-1.43,8.86-.26,1.63-2.34,9.25-.26,6.64,2.08-2.61,4.75-10.29,6.38-14.2,1.63-3.91,3.06-12.76,3.52-16.8.46-4.04,1.04-5.8,1.3-8.99.44-5.39.94-12.55,2.34-17.71.39-1.44.99-8.42-.13-7.42Z"/>
        <path class="cls-3" d="m101.72,153.5c-1.04.59-4.36,9.7-5.6,13.29-1.24,3.58-2.41,10.55-3.39,15.89-.98,5.34-1.56,12.89-1.82,17.19-.26,4.3-.98,6.64-1.3,8.21-.33,1.56-3.78,9.7-.13,6.38,3.65-3.32,8.73-22.92,9.77-28.78,1.04-5.86,1.3-13.22,1.82-17.32.52-4.1.85-6.32,1.3-8.34.46-2.02.72-2.41.91-3.78.2-1.37-.52-3.32-1.56-2.74Z"/>
        <path class="cls-3" d="m444.71,91.38c-7.96,5.33-13.11,9.26-22.03,14.28-12.07,6.8-24.35,13.71-36.77,19.86-6.19,3.06-24.16,13.35-28.65,19.28-4.49,5.93-5.91,7.52-9.25,14.59-3.34,7.07-7.45,21.09-8.99,26.96-2.7,10.3-5.25,15.24-15.11,20.84-8.6,4.88-23.92,9.35-35.56,11.59-11.63,2.24-39.05,3.11-48.71,2.34-9.66-.76-13.53-2.02-17.19-5.08-3.66-3.06-2.21-8.22-3.39-8.08-1.18.15-2.03,7.85-2.47,10.16-.44,2.31-1.29,5.02-.78,10.55.51,5.53,8.77,7.93,15.37,9.12,6.6,1.19,25.72,1.17,40.9-.78,15.17-1.95,40.67-8.66,52.75-20.45.86-.84,11.19-13.47,11.33-13.29.41.53-1.37,7.36-1.56,10.03-.2,2.67-.46,5.73-.91,10.68-.46,4.95-.85,13.42,4.56,18.37,5.41,4.95,10.9-1.25,13.16-5.47,1.41-2.64,4.34-9.2,5.2-13.31.42-2.01.1-3.52-.64-3.49-1.26.04-3.13,10.39-11.12,2.76-2.02-2.75-2.89-6.08-2.95-9.93-.17-12.17,3.27-27.36,5.68-38.24,1.18-5.33,2.83-11.59,4.48-16.73,1.3-4.04,2.41-5.14,7.03-8.47,4.62-3.32,23.71-14.13,30.61-18.1,16.93-9.74,35.88-19.06,51.84-29.7,1.62-1.08,3.72-3.65,5.03-6.12,1.29-2.44,1.89-6.69-1.85-4.19Z"/>
        <path class="cls-3" d="m164.24,186.58c-.39-1.04-1.3-1.69-2.34.26-5.93,11.12-10.4,18.97-14.59,31.26-2.19,6.42-3.77,17.6-2.87,24.36.62,4.68,2.77,11.75,5.86,15.11,5.68,6.17,16.74,7.53,24.49,4.95,10.93-3.64,20.2-10.98,25.87-22.83,2.61-5.46,4.52-9.77,5.91-15.25,1.46-5.78,4.9-17.55-1.04-22.49-.94-.78-2.01-1.62-3.14-2.4-2.63-1.8-4.94-3.52-4.71-6.12.14-1.64,1.33-3.19,2.12-5.2.58-1.51,1.5-3.4,2.2-4.7.96-1.76.67-1.74,2.46-.71,1.84,1.04,4.3,2.42,7.49.88,2.81-1.36,5.02-4.31,6.62-7.41,1.53-2.96,2.47-6.26,2.74-9.09.26-2.74-1.61-8.35-3.95-7.99-2.35.36-2.46,5.82-4.93,5.36-2.47-.46-3.52-.78-4.69-4.56-1.17-3.78-.39-13.48.39-17.06.78-3.58.65-2.74.78-4.17.13-1.43-.91-3.84-1.82-1.95-1.25,2.6-3.37,10.19-4.06,13.32-.98,4.41-1.52,10.22-2.19,14.48-.79,5.06-.76,8.8-1.46,13.7-.62,4.33-3.15,9.91-5.7,15.2-2.54,5.28-4.65,10.37-4.38,14.13.47,6.6,5.69,7.95,9.87,9.72,4.25,1.8,6.96,3.93,1.15,12.17-7.65,10.84-20.57,14.77-29.89,14.73-9.59-.05-16.04-3.18-19.08-13.01-.81-2.61-.62-8.01.68-13.58,1.64-7.03,4.74-14.38,6.22-17.42,2.61-5.34,6.38-12.63,5.99-13.68Z"/>
      </g>
    </g>
  </g>
</svg>